<?xml version="1.0" encoding="UTF-8"?>
<svg version="1.1" xmlns="http://www.w3.org/2000/svg" width="1053" height="994">
<path d="M0 0 C347.49 0 694.98 0 1053 0 C1053 328.02 1053 656.04 1053 994 C705.51 994 358.02 994 0 994 C0 665.98 0 337.96 0 0 Z " fill="#000000" transform="translate(0,0)"/>
<path d="M0 0 C1.09476819 -0.00382555 2.18953639 -0.00765109 3.31747937 -0.01159257 C6.95684041 -0.02184625 10.59604144 -0.01794504 14.2354126 -0.01396179 C16.85618739 -0.01831232 19.4769609 -0.02349661 22.09773254 -0.02944946 C28.45869261 -0.04215142 34.81961038 -0.04399603 41.180581 -0.0416492 C46.3509346 -0.03986183 51.52127543 -0.04162461 56.6916275 -0.04587364 C57.4291375 -0.04646883 58.16664751 -0.04706402 58.9265063 -0.04767724 C60.4249683 -0.04888905 61.92343031 -0.05010319 63.42189232 -0.05131962 C77.44901453 -0.06217652 91.47611265 -0.06004068 105.5032362 -0.05393478 C118.33065994 -0.04875989 131.15800788 -0.06003941 143.98541662 -0.07903299 C157.17192055 -0.09840812 170.3583886 -0.10666844 183.54490685 -0.10290974 C190.94221257 -0.10099815 198.33945366 -0.10348177 205.73674774 -0.11762428 C212.68729675 -0.13077907 219.63769114 -0.12828273 226.58823967 -0.11521339 C229.1396 -0.112843 231.69097097 -0.1155988 234.24231911 -0.12383652 C237.72300321 -0.13426544 241.20317248 -0.12623391 244.68383789 -0.11352539 C245.69482788 -0.12089968 246.70581787 -0.12827396 247.74744391 -0.13587171 C255.723186 -0.07454405 261.68824804 1.52044424 267.58795166 7.26069641 C271.67709171 13.15346389 273.18374911 18.11112704 272.58795166 25.26069641 C270.35719841 32.47867509 265.18421578 37.75784936 258.61452293 41.33530617 C254.10801654 42.71319444 249.75212803 42.53405652 245.06515503 42.51225281 C243.45753534 42.51670802 243.45753534 42.51670802 241.81743848 42.52125323 C238.21956718 42.52890277 234.62185867 42.52239505 231.02398682 42.5160675 C228.4466338 42.51881706 225.86928163 42.52249674 223.29193115 42.52703857 C217.73663092 42.53567091 212.18136253 42.53747971 206.62605667 42.5350914 C198.5776945 42.5319909 190.52940254 42.54364387 182.48105805 42.5596412 C169.4012984 42.58560837 156.3215387 42.60562197 143.24176025 42.61909485 C142.45900012 42.61990522 141.67623998 42.62071559 140.86975984 42.62155052 C129.78006213 42.63275393 118.69036942 42.63804897 107.60066681 42.64093764 C106.82093858 42.64114163 106.04121036 42.64134562 105.237854 42.64155579 C104.06969575 42.64185569 104.06969575 42.64185569 102.87793835 42.64216165 C89.85879677 42.64590378 76.83973111 42.66505505 63.82062757 42.69665015 C55.8012702 42.71549937 47.78210814 42.72156673 39.76273482 42.71083297 C33.60277117 42.70372571 27.44300912 42.71737782 21.28308105 42.738451 C18.76734282 42.74375182 16.25157937 42.74231261 13.73585129 42.7334156 C-8.89744751 42.65986711 -26.64253968 45.0140032 -43.80267334 61.33100891 C-55.20903262 74.13755002 -60.57523633 89.61848246 -60.54626942 106.63754845 C-60.54862165 107.57841374 -60.55097388 108.51927903 -60.55339739 109.48865539 C-60.56007432 112.65327105 -60.55962956 115.81784554 -60.55921936 118.98246765 C-60.5625188 121.26963254 -60.56624454 123.55679684 -60.57036084 125.8439604 C-60.5803799 132.13879039 -60.58409749 138.43361084 -60.58675015 144.72844768 C-60.59025276 150.81737264 -60.59840013 156.90628994 -60.60629409 162.99521049 C-60.62712846 179.30920905 -60.63760706 195.62320941 -60.64642369 211.93721817 C-60.650632 219.65750234 -60.65585377 227.37778573 -60.66110822 235.09806924 C-60.67899835 261.53360573 -60.69399328 287.96914244 -60.70142841 314.40468407 C-60.70190317 316.0640337 -60.70237906 317.72338333 -60.70285608 319.38273297 C-60.70309245 320.20560882 -60.70332883 321.02848467 -60.70357237 321.87629615 C-60.70477354 326.04528244 -60.705989 330.21426872 -60.70721436 334.383255 C-60.70745451 335.21059808 -60.70769466 336.03794115 -60.70794208 336.89035523 C-60.71583229 363.7054477 -60.7392584 390.52049591 -60.7717703 417.33556905 C-60.80609302 445.69604077 -60.82578185 474.0564866 -60.82907265 502.41697943 C-60.82949018 505.53235158 -60.82996974 508.64772372 -60.83049583 511.76309586 C-60.83061903 512.53016975 -60.83074222 513.29724365 -60.83086914 514.08756221 C-60.8331982 526.41554283 -60.84884181 538.74347192 -60.86933768 551.07143419 C-60.88962608 563.47169134 -60.89505876 575.8718868 -60.88556705 588.27215748 C-60.88082034 594.98598123 -60.8829128 601.69961789 -60.90232849 608.41342926 C-60.91996762 614.56616161 -60.91895592 620.7186055 -60.9034312 626.87134095 C-60.90105631 629.09081599 -60.90537238 631.31031104 -60.91725985 633.52975552 C-61.0275557 655.49241709 -57.83387304 674.44446343 -42.01361084 690.94429016 C-33.22637475 698.76836074 -23.88637652 703.51470334 -12.41204834 706.26069641 C-11.80483844 706.43640565 -11.19762853 706.61211488 -10.57201833 706.79314864 C-8.03352857 707.34263092 -5.7085703 707.39122742 -3.11034107 707.3977108 C-2.02952473 707.40278534 -0.9487084 707.40785989 0.16485995 707.4130882 C1.35169747 707.41358596 2.53853499 707.41408372 3.76133728 707.41459656 C5.65344908 707.42116994 5.65344908 707.42116994 7.58378536 707.42787611 C11.08781608 707.43983026 14.59183304 707.44548743 18.09588015 707.45005727 C21.8746389 707.45601816 25.65338124 707.46762719 29.43212891 707.47834778 C38.56224708 707.50286675 47.69237068 707.51750136 56.82251164 707.53040785 C59.40330801 707.53412116 61.98410385 707.53809431 64.56489968 707.54216051 C80.60451582 707.56740636 96.64413284 707.58945126 112.68376446 707.60188866 C116.39897858 707.60481819 120.11419268 707.60777987 123.82940674 707.61079407 C124.75276665 707.61154012 125.67612656 707.61228617 126.62746707 707.61305483 C141.56316251 707.6256904 156.49873841 707.65888878 171.43437805 707.7005959 C186.78354599 707.74310458 202.13265291 707.76659427 217.48187953 707.77180922 C226.09362449 707.77521401 234.70518292 707.78685804 243.31686974 707.81991196 C250.65640022 707.84803714 257.99570594 707.8588577 265.3352861 707.8477165 C269.07421663 707.84256079 272.81267745 707.84521227 276.55153847 707.87018204 C299.98723686 708.01818421 319.38863397 706.53281906 337.20513916 689.72163391 C348.33479127 678.22707518 354.44995318 663.88899233 354.82696533 647.9132843 C355.60277041 617.93009346 366.13403457 591.51507031 387.58795166 570.26069641 C405.92574313 553.29875849 428.21653334 543.67150351 453.03640747 542.09651184 C465.60712556 541.26382106 477.31299949 540.37275594 488.58795166 534.26069641 C489.59857666 533.72315735 490.60920166 533.18561829 491.65045166 532.63179016 C506.21395896 524.10343194 514.69140212 511.14889143 519.89654541 495.37007141 C521.83007313 486.6746586 521.73368381 477.80105349 521.72979736 468.93574524 C521.73513039 466.94463371 521.74046938 464.95352218 521.74603403 462.96241128 C521.75119887 460.8419734 521.75413383 458.72154162 521.75661659 456.60109901 C521.762574 452.16668511 521.77915528 447.73234943 521.79795837 443.29797363 C521.80429376 441.77450661 521.8106194 440.25103954 521.81693554 438.72757244 C521.82168426 437.58406718 521.82168426 437.58406718 521.82652891 436.4174608 C521.86848659 426.10846467 521.90161056 415.79950876 521.91387939 405.49043274 C521.92226613 398.51453228 521.94476841 391.53882987 521.98323506 384.56302851 C522.00295392 380.87907509 522.01541375 377.19541741 522.01040077 373.51140785 C522.00488131 369.40648388 522.0301804 365.302298 522.05792236 361.19746399 C522.05132095 359.98534241 522.04471954 358.77322083 522.03791809 357.52436829 C522.12422264 349.75295037 523.0437198 345.16246044 528.36920166 339.29975891 C528.93638916 338.83311829 529.50357666 338.36647766 530.08795166 337.88569641 C530.65513916 337.40358704 531.22232666 336.92147766 531.80670166 336.42475891 C536.67129266 333.24570602 543.01440267 333.71957515 548.58795166 334.26069641 C554.7938647 336.02169054 559.03853307 339.96727284 562.58795166 345.26069641 C563.65739223 348.46901812 563.71374443 350.75952819 563.7149353 354.13244629 C563.71775513 355.35874252 563.72057495 356.58503876 563.72348022 357.84849548 C563.72153572 359.21009841 563.71948754 360.5717012 563.71734619 361.93330383 C563.71870119 363.36589604 563.72048168 364.7984879 563.72265625 366.2310791 C563.72722418 370.12855433 563.72544223 374.02600314 563.72227716 377.92347884 C563.71974393 382.01328715 563.72209438 386.10309321 563.72366333 390.19290161 C563.72548488 397.07544865 563.72308188 403.95798498 563.71832275 410.8405304 C563.71290824 418.76156266 563.71462226 426.68256907 563.72014916 434.60360068 C563.72471441 441.42254072 563.72531342 448.24147306 563.72271049 455.06041414 C563.72116275 459.12418528 563.72091166 463.18794437 563.72424698 467.25171471 C563.72717447 471.08730182 563.7250622 474.92285636 563.71935272 478.75844002 C563.71804969 480.15303366 563.71837639 481.54763014 563.72061539 482.9422226 C563.74183011 497.52162173 563.01525789 511.77764466 560.33795166 526.13569641 C560.11542725 527.34677063 559.89290283 528.55784485 559.66363525 529.80561829 C557.83572539 539.47718082 555.60470727 548.89388268 552.58795166 558.26069641 C552.34883057 559.01624817 552.10970947 559.77179993 551.86334229 560.55024719 C541.33451236 593.4020912 525.3685674 623.50995159 503.58795166 650.26069641 C503.15079834 650.8008136 502.71364502 651.34093079 502.26324463 651.89741516 C490.79099331 665.96414132 478.01799951 679.22025712 463.58795166 690.26069641 C462.31484895 691.27250135 461.04279491 692.28562656 459.77154541 693.29975891 C445.90302019 704.26330251 431.23313601 713.00266135 415.58795166 721.19819641 C414.54961182 721.74218079 413.51127197 722.28616516 412.44146729 722.84663391 C406.27217869 726.02439207 400.07776163 728.81001215 393.58795166 731.26069641 C392.69592041 731.60834045 391.80388916 731.9559845 390.88482666 732.31416321 C368.02736668 741.16393082 344.94497662 746.63069748 320.58795166 749.26069641 C319.78896015 749.34867451 318.98996864 749.43665262 318.16676527 749.52729672 C310.83241149 750.2689261 303.56782842 750.40899502 296.19987488 750.40786743 C294.89235608 750.41154412 293.58483729 750.41522081 292.23769671 750.41900891 C288.63739382 750.42893482 285.03710758 750.43273031 281.43679297 750.43539822 C277.54225638 750.43932928 273.64773264 750.44890513 269.75320435 750.45761108 C260.36496759 750.47729221 250.9767299 750.48742896 241.5884777 750.49633887 C237.1572415 750.50073364 232.72600647 750.50609717 228.29477119 750.51132774 C213.54902234 750.52832818 198.80327419 750.54282143 184.05751705 750.55007648 C180.23864173 750.55198606 176.41976641 750.55390645 172.60089111 750.55586243 C171.17732326 750.55658804 171.17732326 750.55658804 169.72499646 750.55732831 C154.35718548 750.56562562 138.9894524 750.59096284 123.62167542 750.6234431 C107.81236524 750.656582 92.00309457 750.67453122 76.19374949 750.67772073 C67.33003907 750.679879 58.46644243 750.68852778 49.60276604 750.7141819 C42.05374894 750.73598211 34.50487331 750.74389363 26.9558283 750.73421512 C23.1114804 750.72969785 19.26742383 750.73140475 15.42311668 750.75097656 C-18.72559798 750.91504062 -47.4500251 744.19093198 -72.70013428 719.98432922 C-84.42811246 708.17606825 -93.55218629 693.1724275 -98.41204834 677.26069641 C-98.69693115 676.3983136 -98.98181396 675.53593079 -99.27532959 674.64741516 C-101.96655209 666.24212784 -102.56099505 658.20349259 -102.54068279 649.4335804 C-102.54243583 648.46834936 -102.54418887 647.50311831 -102.54599503 646.50863785 C-102.55064814 643.27323582 -102.54819129 640.03787887 -102.54576111 636.80247498 C-102.54762942 634.45981048 -102.5499302 632.1171463 -102.55262643 629.77448261 C-102.55810647 624.01074299 -102.55892669 618.24701583 -102.55776558 612.48327403 C-102.5566282 605.57784301 -102.56127241 598.67241889 -102.56604494 591.76698986 C-102.57571317 577.45043746 -102.57852898 563.13388864 -102.579102 548.81733336 C-102.5795616 537.76211622 -102.58162022 526.70690049 -102.58480263 515.65168381 C-102.58570017 512.46911363 -102.58658999 509.28654345 -102.58747751 506.10397327 C-102.58769855 505.31277462 -102.5879196 504.52157597 -102.58814735 503.7064016 C-102.59430097 481.45351981 -102.59824796 459.2006385 -102.59780407 436.94775581 C-102.59778849 436.1088715 -102.59777291 435.26998718 -102.59775686 434.40568213 C-102.59767375 430.15388838 -102.59757471 425.90209463 -102.59747215 421.65030088 C-102.59745221 420.80588184 -102.59743226 419.9614628 -102.59741171 419.0914553 C-102.59737128 417.38383514 -102.59732948 415.67621498 -102.59728632 413.96859482 C-102.59667346 387.39619744 -102.60418235 360.82381281 -102.61785889 334.25141907 C-102.63321853 304.39659039 -102.6418252 274.54177009 -102.64089566 244.68693721 C-102.64082103 241.50373832 -102.64077233 238.32053944 -102.64074135 235.13734055 C-102.64072969 234.35355731 -102.64071804 233.56977407 -102.64070603 232.76223982 C-102.64067526 220.14867372 -102.6470613 207.5351187 -102.65567361 194.92155589 C-102.66414925 182.24608668 -102.66514072 169.57063367 -102.65856429 156.89516319 C-102.65519359 150.02820166 -102.65500139 143.16127676 -102.66391754 136.29431915 C-102.67175729 130.00882062 -102.67037696 123.72339426 -102.66163341 117.43789755 C-102.66009286 115.1634109 -102.66193537 112.88891893 -102.66749348 110.61443855 C-102.67454865 107.52270324 -102.66926362 104.43122143 -102.66093731 101.33949471 C-102.66590549 100.45678341 -102.67087367 99.57407212 -102.6759924 98.664612 C-102.64179278 92.65655604 -101.75315433 87.10859993 -100.41204834 81.26069641 C-100.03886475 79.44891907 -100.03886475 79.44891907 -99.65814209 77.60054016 C-96.03615954 62.36021746 -88.37672202 49.26244137 -78.41204834 37.26069641 C-77.66568115 36.33901672 -76.91931396 35.41733704 -76.15032959 34.46772766 C-57.52577765 12.64159985 -28.51378004 -0.10754051 0 0 Z " fill="#FDFDFD" transform="translate(246.41204833984375,99.73930358886719)"/>
<path d="M0 0 C5.72709842 3.26931529 9.81040648 8.14119216 11.75 14.4375 C12.03851701 17.96224325 12.00243528 21.47630162 11.97705078 25.01098633 C11.97734283 26.07485565 11.97763489 27.13872498 11.97793579 28.23483276 C11.97654398 31.74648228 11.96098951 35.25791886 11.9453125 38.76953125 C11.94158185 41.20619084 11.93873512 43.64285193 11.93673706 46.07951355 C11.92910474 52.48941192 11.90945958 58.8992195 11.8873291 65.30908203 C11.86686211 71.85122449 11.85773351 78.39338163 11.84765625 84.93554688 C11.82621341 97.76956996 11.79246723 110.60353015 11.75 123.4375 C12.30438248 123.43381283 12.85876495 123.43012566 13.4299469 123.42632675 C26.94357503 123.3378394 40.45715214 123.27198001 53.9710083 123.23025131 C60.50633554 123.2093919 67.04145341 123.18110357 73.57666016 123.13574219 C79.88550877 123.09222686 86.19415618 123.06835051 92.50314331 123.05799103 C94.9080624 123.05060997 97.31297069 123.03619649 99.71780396 123.01457977 C103.09075571 122.98547123 106.46288 122.98154726 109.8359375 122.98339844 C110.82640579 122.96901733 111.81687408 122.95463623 112.83735657 122.93981934 C119.96732315 122.98205999 125.31512258 124.47342624 130.7734375 129.18359375 C135.22739806 134.75748081 137.18410305 138.93216445 137.00390625 146.1640625 C136.37826013 151.76600164 133.68287325 156.50462675 129.75 160.4375 C124.83931373 163.38987616 120.11894033 165.56454448 114.32710266 165.55775452 C113.42266418 165.55912918 112.51822571 165.56050385 111.58638 165.56192017 C110.59663681 165.55832489 109.60689362 165.55472961 108.5871582 165.55102539 C107.54308807 165.55117142 106.49901794 165.55131744 105.42330933 165.5514679 C101.96577897 165.55077018 98.50830222 165.54298431 95.05078125 165.53515625 C92.6561028 165.53329157 90.26142396 165.5318679 87.866745 165.53086853 C81.55877635 165.52704728 75.25083066 165.51722031 68.94287109 165.50616455 C62.50814118 165.49594202 56.07340756 165.4913691 49.63867188 165.48632812 C37.00910478 165.47559772 24.37955361 165.45871774 11.75 165.4375 C11.75276538 165.98765054 11.75553076 166.53780107 11.75837994 167.10462284 C11.82471906 180.50943815 11.87412738 193.91422458 11.90543652 207.31916904 C11.92108691 213.80179019 11.94231414 220.28429278 11.97631836 226.7668457 C12.00893356 233.02380983 12.02685773 239.28065998 12.03463173 245.53770256 C12.04017131 247.9238966 12.05098872 250.31008446 12.06719017 252.69622993 C12.08899265 256.0405433 12.09196567 259.38438667 12.09057617 262.72875977 C12.101362 263.7134726 12.11214783 264.69818542 12.1232605 265.71273804 C12.0920284 272.66765818 10.76104184 277.05894971 7.1875 283.0625 C2.7429883 287.39304986 -3.07324522 290.6512863 -9.375 291 C-17.23434704 289.85912704 -21.70296383 286.50298649 -26.8046875 280.53515625 C-30.7124994 274.86354817 -30.52537975 269.62256854 -30.47705078 262.95581055 C-30.47734283 261.90169479 -30.47763489 260.84757904 -30.47793579 259.76152039 C-30.47654407 256.28233569 -30.46099001 252.80336597 -30.4453125 249.32421875 C-30.44158182 246.90997942 -30.43873511 244.49573858 -30.43673706 242.08149719 C-30.42910498 235.73078218 -30.40946003 229.38015881 -30.3873291 223.02947998 C-30.36686159 216.54766072 -30.3577334 210.06582664 -30.34765625 203.58398438 C-30.32621384 190.86845051 -30.29246799 178.15298013 -30.25 165.4375 C-30.79922874 165.44118717 -31.34845749 165.44487434 -31.91432953 165.44867325 C-45.30277909 165.53716339 -58.69117713 165.60302133 -72.07985687 165.64474869 C-78.554651 165.66560747 -85.02923376 165.69389465 -91.50390625 165.73925781 C-97.75440036 165.78277539 -104.00469138 165.80664996 -110.25532532 165.81700897 C-112.63791602 165.82438963 -115.02049582 165.83880233 -117.40299988 165.86042023 C-120.74482082 165.8895318 -124.08580666 165.89345262 -127.42773438 165.89160156 C-128.40885193 165.90598267 -129.38996948 165.92036377 -130.40081787 165.93518066 C-137.66025037 165.89177955 -142.98371385 164.29976818 -148.4921875 159.47265625 C-153.44095873 153.49387761 -155.93053801 149.46784852 -155.25 141.4375 C-153.86078418 135.51874016 -150.99696161 130.31156991 -146.25 126.4375 C-140.24204701 123.22207194 -135.18763719 123.02381302 -128.44946289 123.09692383 C-127.38530151 123.09648575 -126.32114014 123.09604767 -125.22473145 123.09559631 C-121.72385002 123.09767845 -118.22345354 123.12098302 -114.72265625 123.14453125 C-112.28885662 123.15012923 -109.85505361 123.15439837 -107.42124939 123.15739441 C-101.02776695 123.16882718 -94.63449024 123.19828117 -88.24108887 123.23150635 C-81.71218651 123.26224086 -75.18325078 123.27590699 -68.65429688 123.29101562 C-55.85277701 123.32315212 -43.05139947 123.37374987 -30.25 123.4375 C-30.25276538 122.89342499 -30.25553076 122.34934998 -30.25837994 121.78878784 C-30.32474981 108.52549057 -30.3741422 95.26222255 -30.40543652 81.99879456 C-30.42108001 75.58458256 -30.4422946 69.17049058 -30.47631836 62.75634766 C-30.50895822 56.56421735 -30.52686292 50.37220238 -30.53463173 44.17999268 C-30.54016688 41.81974472 -30.55097568 39.45950295 -30.56719017 37.0993042 C-30.58902546 33.78872121 -30.59196431 30.47861238 -30.59057617 27.16796875 C-30.601362 26.19620193 -30.61214783 25.22443512 -30.6232605 24.22322083 C-30.58532596 15.840521 -28.73373024 9.17003393 -22.90625 2.9140625 C-16.61563514 -2.69407999 -7.54692023 -3.34777341 0 0 Z " fill="#FDFDFD" transform="translate(715.25,101.5625)"/>
<path d="M0 0 C1.05004032 -0.00644889 2.10008065 -0.01289778 3.18194038 -0.0195421 C4.90283536 -0.01489629 4.90283536 -0.01489629 6.6584959 -0.01015663 C7.88218921 -0.01468774 9.10588251 -0.01921886 10.36665744 -0.02388728 C13.76045815 -0.03436006 17.15404699 -0.0358567 20.54784882 -0.03349853 C24.20917697 -0.03309039 27.8704735 -0.04412922 31.53178692 -0.05361366 C38.70403624 -0.07022538 45.8762527 -0.07572329 53.04851965 -0.07683842 C58.87880994 -0.07778883 64.70908939 -0.08189876 70.53937626 -0.08823967 C87.07057424 -0.10585268 103.60174625 -0.11507847 120.13295368 -0.11357872 C121.46970849 -0.11345885 121.46970849 -0.11345885 122.83346844 -0.11333656 C124.1718561 -0.11321392 124.1718561 -0.11321392 125.53728189 -0.1130888 C139.99722395 -0.11227592 154.45706183 -0.13141395 168.91697375 -0.1596133 C183.76554105 -0.18834201 198.61405754 -0.20215359 213.46265334 -0.20042574 C221.79851536 -0.19976183 230.13426818 -0.20525471 238.47010517 -0.22678185 C245.56758143 -0.2449935 252.66489899 -0.24934117 259.76238851 -0.235763 C263.38267682 -0.22923315 267.00266068 -0.22911634 270.62292004 -0.2464695 C274.55020281 -0.26510047 278.47704109 -0.25264595 282.40434551 -0.23720741 C283.54491667 -0.24749454 284.68548783 -0.25778167 285.86062175 -0.26838052 C293.60622543 -0.2010364 298.97744525 0.97598177 304.96408367 6.22211266 C309.44499089 11.63564889 312.29974975 15.66145905 312.10470867 23.00336266 C311.14794477 28.63655422 308.29795109 33.63973885 304.34689617 37.69476891 C296.83369265 42.16691386 291.18115524 42.69046701 282.50682354 42.64494896 C280.66259498 42.65302727 280.66259498 42.65302727 278.78110927 42.66126877 C275.38032555 42.67307944 271.98003332 42.67148685 268.57926929 42.66410196 C264.907062 42.65936629 261.23490696 42.67188364 257.56271648 42.68211937 C250.37334314 42.69930473 243.18405722 42.70014796 235.99466867 42.69490647 C230.15059663 42.69086315 224.3065504 42.69231024 218.46247959 42.69765472 C217.21429131 42.69877736 217.21429131 42.69877736 215.9408871 42.69992267 C214.25036669 42.70145416 212.55984627 42.70299251 210.86932587 42.70453764 C195.0204505 42.71826165 179.17162451 42.71282562 163.32275026 42.70135242 C148.82736513 42.69141945 134.33210762 42.70436198 119.83674217 42.72828662 C104.94742525 42.75267606 90.05816778 42.76228591 75.16883129 42.75563389 C66.81176729 42.75214141 58.45480146 42.75437565 50.09775257 42.77188492 C42.9838474 42.78660493 35.87010953 42.78724499 28.75620765 42.76981401 C25.12781069 42.76130002 21.49971261 42.75916387 17.87133121 42.77446556 C13.9353852 42.79085864 9.99990063 42.77616914 6.06395245 42.75847435 C4.92085458 42.76807936 3.77775671 42.77768436 2.60001951 42.78758043 C-4.9412444 42.71776512 -10.67493919 41.7560948 -16.30154133 36.29242516 C-20.56466886 30.07023035 -23.40946896 25.08979674 -22.27810383 17.25726891 C-20.28255285 10.6391125 -15.89026195 6.12411901 -10.27810383 2.25726891 C-6.71497313 0.59393403 -3.92100645 0.00610336 0 0 Z " fill="#FDFDFD" transform="translate(332.2781038284302,432.74273109436035)"/>
<path d="M0 0 C1.32607934 -0.00785502 1.32607934 -0.00785502 2.67894816 -0.01586872 C5.64129686 -0.0308705 8.60347286 -0.03157392 11.56585693 -0.03224182 C13.6898986 -0.03986322 15.8139375 -0.04829069 17.93797302 -0.0574646 C23.70876367 -0.07941932 29.47950132 -0.08820992 35.25032902 -0.09329104 C38.8564142 -0.09693369 42.46248548 -0.10317331 46.06856537 -0.11029243 C58.65116486 -0.13479105 71.2337231 -0.14783957 83.81634521 -0.15138245 C95.54124092 -0.15501724 107.26587479 -0.18490771 118.99069047 -0.22678703 C129.05964754 -0.26148981 139.12851785 -0.27693089 149.19753432 -0.27762848 C155.21008935 -0.27842134 161.22237772 -0.28716447 167.23487091 -0.31562614 C172.89190384 -0.34180597 178.54844903 -0.34401207 184.20551491 -0.3279705 C186.27872341 -0.32615593 188.35195995 -0.33284743 190.42510796 -0.34878922 C193.26208863 -0.36926995 196.097366 -0.35868613 198.93432617 -0.34057617 C199.74903578 -0.35377614 200.56374539 -0.36697611 201.40314317 -0.38057607 C208.41134487 -0.27883881 214.10143036 2.23266983 219.14188504 7.14675337 C223.86024442 12.3824561 224.51866555 16.52063667 224.43597412 23.48509216 C224.0382404 28.64839903 222.32816146 31.9140879 219.03363037 35.96165466 C212.71014956 41.16096111 207.14608112 42.87038828 199.0368042 42.78208923 C198.14539891 42.7883292 197.25399363 42.79456916 196.33557606 42.80099821 C193.36616413 42.81687808 190.39757879 42.80434354 187.42816162 42.79173279 C185.29220096 42.79715612 183.15624404 42.80427997 181.02029419 42.81297302 C175.23106563 42.83118399 169.44212271 42.82414788 163.65288925 42.81145668 C157.58944692 42.80131757 151.52602876 42.8107249 145.46258545 42.81700134 C135.28081886 42.82427507 125.09916839 42.81469717 114.91741943 42.79563904 C103.15212987 42.77387092 91.3871176 42.78092248 79.62183475 42.80294466 C69.51375235 42.8211064 59.40575333 42.82365316 49.29765987 42.81318998 C43.263447 42.80695936 37.22936438 42.80610771 31.19515991 42.81933594 C25.52169462 42.83090496 19.84858626 42.82284907 14.17515945 42.79975891 C12.09509498 42.7944775 10.01500039 42.79597584 7.93494797 42.80480957 C5.09138097 42.81577091 2.24895144 42.8019941 -0.59454346 42.78208923 C-1.4140105 42.79101212 -2.23347754 42.79993501 -3.07777691 42.80912828 C-9.6202549 42.72054219 -15.04244972 40.93133461 -19.80230713 36.30931091 C-24.06543466 30.08711611 -26.91023476 25.1066825 -25.77886963 17.27415466 C-23.78331865 10.65599826 -19.39102775 6.14100476 -13.77886963 2.27415466 C-9.28291677 -0.04287798 -4.94444261 -0.01449827 0 0 Z " fill="#FDFDFD" transform="translate(335.77886962890625,557.7258453369141)"/>
<path d="M0 0 C1.06987389 -0.00679667 1.06987389 -0.00679667 2.1613614 -0.01373065 C4.54564411 -0.02636669 6.92969817 -0.02475481 9.31401062 -0.02310181 C11.02588697 -0.02908759 12.73776063 -0.03589325 14.44963074 -0.04345703 C19.09643227 -0.06111989 23.74316014 -0.06581255 28.389992 -0.0670886 C31.29454008 -0.06851068 34.19906946 -0.07278136 37.1036129 -0.07808304 C47.24065209 -0.09658474 57.3776387 -0.10475353 67.51469421 -0.10317993 C76.95721777 -0.10197871 86.39951267 -0.12307681 95.84197837 -0.15466726 C103.95424991 -0.18083825 112.06644681 -0.19154687 120.17876023 -0.19026911 C125.0214496 -0.18975969 129.86393578 -0.19543181 134.70658302 -0.21662521 C139.26292836 -0.23602128 143.818877 -0.23612274 148.37523651 -0.22159195 C150.04410826 -0.2195044 151.71300492 -0.22420156 153.38183403 -0.23631287 C170.53659945 -0.35271202 170.53659945 -0.35271202 178.05107117 6.23226929 C182.53197839 11.64580552 185.38673725 15.67161568 185.19169617 23.01351929 C184.23493226 28.64671085 181.38493859 33.64989549 177.43388367 37.70492554 C171.56325647 41.19934649 167.20572676 42.64208126 160.33929443 42.65510559 C159.26073194 42.6631839 159.26073194 42.6631839 158.1603803 42.6714254 C155.76837876 42.68565034 153.37693491 42.67861509 150.98490906 42.67147827 C149.26288409 42.67718471 147.54086291 42.68415003 145.81884766 42.692276 C141.15352983 42.71019213 136.48840024 42.70904196 131.82305837 42.70333362 C127.92396744 42.70023959 124.02491257 42.70633659 120.12582678 42.71237236 C110.92550329 42.72641085 101.72527267 42.72486187 92.52494812 42.71347046 C83.04260903 42.70198911 73.56055277 42.71606674 64.07825094 42.74286693 C55.92771353 42.76503814 47.77726481 42.77165813 39.62669939 42.76579052 C34.76281392 42.76242324 29.89910974 42.76482086 25.03524971 42.78204155 C20.46080338 42.7975313 15.88677543 42.79353267 11.3123455 42.7747364 C9.63702854 42.77105617 7.96168044 42.77414248 6.28639221 42.78462219 C-11.43380468 42.8869772 -11.43380468 42.8869772 -18.21455383 36.30258179 C-22.47768136 30.08038699 -25.32248147 25.09995338 -24.19111633 17.26742554 C-22.19556536 10.64926913 -17.80327445 6.13427564 -12.19111633 2.26742554 C-8.03990532 0.22456957 -4.60153223 0.01209155 0 0 Z " fill="#FCFCFC" transform="translate(334.1911163330078,307.7325744628906)"/>
<path d="M0 0 C-6.96478655 13.17830589 -14.39135202 25.82512602 -23 38 C-23.41040527 38.58297852 -23.82081055 39.16595703 -24.24365234 39.76660156 C-44.96031965 68.83023378 -77.17105879 98.1933294 -111 111 C-111.66 110.67 -112.32 110.34 -113 110 C-112.59007812 108.93265625 -112.18015625 107.8653125 -111.7578125 106.765625 C-107.77799345 95.94041879 -105.99237584 85.84458752 -105.17675781 74.37353516 C-103.73500791 55.01346261 -99.5208363 37.83884008 -85 24 C-71.80993994 12.98389595 -59.08401485 8.04788924 -42.1875 7.125 C-33.91645535 6.59370413 -25.84145415 5.9050653 -17.75 4.0625 C-17.05543701 3.90475098 -16.36087402 3.74700195 -15.64526367 3.58447266 C-12.3387541 2.76878788 -9.28751325 1.72589755 -6.203125 0.30859375 C-3 -1 -3 -1 0 0 Z " fill="#020202" transform="translate(748,676)"/>
</svg>
