<?xml version="1.0" encoding="UTF-8"?>
<svg version="1.1" xmlns="http://www.w3.org/2000/svg" width="375" height="375">
<path d="M0 0 C0.78956589 -0.00979385 1.57913177 -0.01958771 2.3926239 -0.02967834 C57.96279089 -0.57671659 106.42242926 17.09448477 146.53125 56.23828125 C149.01037668 58.79987368 151.27830051 61.47690216 153.53125 64.23828125 C154.42026081 65.28021429 155.30961507 66.32185435 156.19921875 67.36328125 C181.27097043 97.18660089 198.36501643 137.44060328 198.76953125 176.70703125 C198.7793251 177.49659714 198.78911896 178.28616302 198.79920959 179.09965515 C199.0323635 202.78429079 197.25292271 224.29020498 189.80078125 246.92578125 C188.49635842 251.02301865 187.93461536 254.96163649 187.53125 259.23828125 C188.27375 259.15578125 189.01625 259.07328125 189.78125 258.98828125 C192.53125 259.23828125 192.53125 259.23828125 194.84375 260.73828125 C197.36335805 264.47103392 197.02707992 266.77581195 196.53125 271.23828125 C195.40625 273.17578125 195.40625 273.17578125 193.53125 274.23828125 C191.55125 274.56828125 189.57125 274.89828125 187.53125 275.23828125 C187.86125 280.84828125 188.19125 286.45828125 188.53125 292.23828125 C189.830625 292.85703125 191.13 293.47578125 192.46875 294.11328125 C196.40625 295.98828125 196.40625 295.98828125 197.53125 298.23828125 C198.10926822 304.48087806 198.10926822 304.48087806 195.71875 307.61328125 C190.67760317 311.35813318 184.53458355 310.77782135 178.53125 310.23828125 C173.922496 308.95807181 171.27023811 307.30057665 168.53125 303.36328125 C167.49466256 300.12394549 167.28995498 297.61641152 167.53125 294.23828125 C166.87125 294.23828125 166.21125 294.23828125 165.53125 294.23828125 C165.29792969 294.76808594 165.06460937 295.29789062 164.82421875 295.84375 C163.13043093 298.98058364 161.02000925 301.74040438 158.84375 304.55078125 C158.39749268 305.12892578 157.95123535 305.70707031 157.49145508 306.30273438 C154.12215533 310.60865707 150.53707755 314.51338187 146.53125 318.23828125 C145.7475 319.02203125 144.96375 319.80578125 144.15625 320.61328125 C143.29 321.47953125 142.42375 322.34578125 141.53125 323.23828125 C140.95503906 323.86089844 140.37882812 324.48351562 139.78515625 325.125 C127.71147567 337.83774117 112.89479263 347.02404279 97.53125 355.23828125 C96.89928711 355.57698242 96.26732422 355.91568359 95.61621094 356.26464844 C73.48343306 367.88344626 47.12241537 375.21822347 22.0625 375.4765625 C21.27307007 375.48640167 20.48364014 375.49624084 19.67028809 375.50637817 C-30.78671457 376.00530972 -77.82496484 362.15575756 -115.3671875 327.1875 C-117.24802667 325.44300419 -119.17493031 323.80360557 -121.15625 322.17578125 C-125.02004316 318.86651396 -128.22694389 315.14932384 -131.46875 311.23828125 C-131.89285156 310.74247559 -132.31695312 310.24666992 -132.75390625 309.73583984 C-155.58619082 283.00012501 -170.26632021 249.99295368 -175.46875 215.23828125 C-175.6430957 214.15691895 -175.81744141 213.07555664 -175.99707031 211.96142578 C-176.82977388 205.13320726 -176.67570826 198.22466116 -176.70703125 191.35546875 C-176.71110678 190.59801487 -176.7151823 189.84056099 -176.71938133 189.06015396 C-176.74012674 185.0591485 -176.75448395 181.05817627 -176.76391602 177.05712891 C-176.77502367 172.93690232 -176.80950577 168.81720931 -176.84908772 164.69717216 C-176.87525219 161.51436374 -176.88360711 158.33168352 -176.88719749 155.14877701 C-176.89205513 153.62976557 -176.9036457 152.11075954 -176.92223549 150.5918541 C-176.94665055 148.46688997 -176.94566003 146.34332388 -176.9387207 144.21826172 C-176.94458694 143.01217255 -176.95045319 141.80608337 -176.95649719 140.56344604 C-176.36690899 136.54399095 -174.97894724 134.39547291 -172.46875 131.23828125 C-171.63859375 130.64402344 -170.8084375 130.04976562 -169.953125 129.4375 C-166.34032337 126.23937528 -165.3150635 122.52248396 -163.71875 118.05078125 C-153.24834508 90.41775483 -135.50433704 64.03251865 -112.46875 45.23828125 C-111.42681696 44.34927044 -110.3851769 43.45991618 -109.34375 42.5703125 C-79.52043036 17.49856082 -39.26642797 0.40451482 0 0 Z " fill="#D01F26" transform="translate(176.46875,-0.23828125)"/>
<path d="M0 0 C1.27931396 0.01015137 2.55862793 0.02030273 3.87670898 0.03076172 C12.85979045 0.17848528 20.96551992 0.86980107 29.625 3.375 C31.19260222 3.79336657 32.76031893 4.21130427 34.328125 4.62890625 C53.24222554 9.834622 82.34085819 19.08898873 93.171875 36.921875 C98.48704825 47.25361627 99.54528845 58.6607378 96.71875 70.015625 C92.57929253 80.36426868 86.05205487 88.73704441 76.3125 94.25 C67.64940622 96.89297776 60.52175865 95.54440819 52.625 91.375 C46.53442174 87.8557886 40.56966039 84.1338743 34.625 80.375 C29.8755747 84.31428015 25.47620422 88.44720932 21.2109375 92.90234375 C20.0267908 94.11856836 18.84187281 95.33404244 17.65625 96.54882812 C15.81437571 98.44035594 13.97763143 100.33590065 12.15332031 102.24438477 C10.37365027 104.10251388 8.57565937 105.94111561 6.7734375 107.77734375 C5.95919815 108.64274025 5.95919815 108.64274025 5.12850952 109.52561951 C3.56005859 111.10522461 3.56005859 111.10522461 0.625 113.375 C-3.2270899 113.27601842 -5.40440888 111.92819252 -8.375 109.5625 C-9.06335938 109.01464844 -9.75171875 108.46679688 -10.4609375 107.90234375 C-11.09257812 107.39832031 -11.72421875 106.89429688 -12.375 106.375 C-13.24125 105.7975 -14.1075 105.22 -15 104.625 C-19.78229442 100.09440529 -24.01180191 93.39399529 -24.61328125 86.73828125 C-24.80225342 78.97053047 -24.17329002 73.40730789 -18.7265625 67.625 C-12.49504664 61.96493319 -7.16251217 60.96965067 1.15625 61.12890625 C16.96991842 62.25082191 29.99360349 71.01137605 43.125 79.125 C44.99952795 80.27822119 46.87491471 81.43001228 48.75134277 82.58013916 C50.43291628 83.61156037 52.11204384 84.64696623 53.79101562 85.68261719 C60.28380786 89.55994625 65.03571736 90.1456341 72.625 89.375 C79.70512354 87.41091257 84.08638617 82.542001 87.8125 76.42578125 C92.58629078 67.49247424 94.78384703 56.61724053 91.83203125 46.71484375 C90.87001972 44.50700887 89.8390261 42.45386744 88.625 40.375 C88.2228125 39.56675781 87.820625 38.75851563 87.40625 37.92578125 C85.10744679 34.63385472 82.2634879 32.69938647 78.9375 30.5625 C77.94544556 29.91619629 77.94544556 29.91619629 76.93334961 29.25683594 C48.13062492 10.88005338 12.64052105 0.52192545 -21.375 7.375 C-41.2080769 12.57179395 -58.42040815 22.69671295 -69.375 40.375 C-70.40947266 42.03982422 -70.40947266 42.03982422 -71.46484375 43.73828125 C-80.50736806 59.07480409 -83.5509148 76.0664043 -83.5625 93.6875 C-83.57474609 94.65623047 -83.58699219 95.62496094 -83.59960938 96.62304688 C-83.61972598 106.67464147 -82.39213033 115.63580374 -77.625 124.5625 C-77.27010498 125.24812012 -76.91520996 125.93374023 -76.54956055 126.64013672 C-73.92976356 131.59434204 -71.02680773 136.11299304 -67.375 140.375 C-66.25544922 141.80199219 -66.25544922 141.80199219 -65.11328125 143.2578125 C-62.35400903 146.56729214 -59.20151251 149.07182636 -55.75 151.625 C-55.17765625 152.058125 -54.6053125 152.49125 -54.015625 152.9375 C-51.51120207 154.82455356 -48.98465856 156.63522763 -46.375 158.375 C-47.70123243 161.31905337 -49.13713655 163.37981894 -51.43188477 165.64306641 C-52.04914932 166.25695221 -52.66641388 166.87083801 -53.30238342 167.50332642 C-53.96701096 168.15449432 -54.63163849 168.80566223 -55.31640625 169.4765625 C-55.99928207 170.15423676 -56.6821579 170.83191101 -57.38572693 171.53012085 C-59.56495478 173.69155292 -61.75075639 175.84617408 -63.9375 178 C-66.1269283 180.16182946 -68.31489101 182.32509169 -70.49998474 184.49130249 C-71.85944561 185.8384863 -73.2215703 187.18298821 -74.58656311 188.52456665 C-75.20067551 189.13214813 -75.8147879 189.73972961 -76.44750977 190.36572266 C-76.98996841 190.89992828 -77.53242706 191.43413391 -78.09132385 191.98452759 C-79.48674506 193.36672435 -79.48674506 193.36672435 -80.375 195.375 C-79.48683594 195.61347656 -78.59867187 195.85195312 -77.68359375 196.09765625 C-74.02606465 197.50971294 -72.21258318 199.07248896 -69.4375 201.8125 C-52.54581914 217.82684744 -52.54581914 217.82684744 -31.90213013 226.63983154 C-28.86669266 226.32173174 -28.03351488 225.64821886 -25.91748047 223.50097656 C-25.28687714 222.87322327 -24.6562738 222.24546997 -24.00656128 221.59869385 C-23.34181793 220.91128113 -22.67707458 220.22386841 -21.9921875 219.515625 C-21.29610382 218.81483826 -20.60002014 218.11405151 -19.88284302 217.39202881 C-17.65995943 215.14778843 -15.45529066 212.8865162 -13.25 210.625 C-11.75760787 209.11610126 -10.26413018 207.60827538 -8.76953125 206.1015625 C-6.03129775 203.32938506 -3.29377787 200.55663454 -0.57373047 197.76660156 C-0.02699677 197.20700745 0.51973694 196.64741333 1.08303833 196.07086182 C2.73178245 194.25755981 4.18442392 192.35625285 5.625 190.375 C11.02916175 191.2064095 13.51161233 195.20125566 16.625 199.375 C20.0406743 205.21470123 20.45788674 210.7662248 19.625 217.375 C18.11352643 222.66515749 16.05131774 227.06510461 12.625 231.375 C13.78 231.271875 14.935 231.16875 16.125 231.0625 C22.00956657 231.04159568 25.99930717 234.12870774 30.328125 237.83203125 C31.625 239.375 31.625 239.375 32.0625 242.75 C31.56070355 246.90774204 30.54913584 248.45086416 27.625 251.375 C24.72204195 252.82647903 22.85238221 252.74739025 19.625 252.375 C17.6082342 250.72866057 15.60760426 249.06232277 13.625 247.375 C10.87098049 246.95369093 10.87098049 246.95369093 8.625 247.375 C6.80856239 250.48889304 6.3530962 252.78277709 6.375 256.375 C6.36984375 257.220625 6.3646875 258.06625 6.359375 258.9375 C6.63968845 261.50978811 7.3301813 263.1553108 8.625 265.375 C10.86925432 265.88049294 10.86925432 265.88049294 13.625 265.375 C15.13665406 264.03433699 15.13665406 264.03433699 16.5625 262.375 C18.83268667 259.90055489 19.2763302 259.43078717 22.75 258.875 C26.87450585 259.59230536 28.74126028 260.30841758 31.4375 263.5625 C33.07197954 267.43363576 32.89050924 269.36755408 31.625 273.375 C29.5431898 275.75576466 27.24966991 277.61978596 24.625 279.375 C23.79162109 279.94154297 23.79162109 279.94154297 22.94140625 280.51953125 C19.30110102 281.86392728 15.72455046 281.74370988 11.875 281.75 C11.1015625 281.77449219 10.328125 281.79898437 9.53125 281.82421875 C2.81502944 281.85802523 -2.25317712 280.01468807 -7.3984375 275.6640625 C-8.06746094 274.84035156 -8.06746094 274.84035156 -8.75 274 C-9.21148437 273.45601563 -9.67296875 272.91203125 -10.1484375 272.3515625 C-14.72988564 264.96871933 -14.63623964 254.96513958 -12.76953125 246.69140625 C-11.70164828 243.73711073 -10.60564809 241.60564809 -8.375 239.375 C-10.08042969 239.04628906 -10.08042969 239.04628906 -11.8203125 238.7109375 C-35.14642348 234.00966886 -54.42779582 222.69434675 -71.6875 206.4375 C-76.81797085 201.74631017 -81.32030508 199.40415297 -88.375 198.9375 C-94.85113924 199.25433656 -99.64246397 202.28275477 -104.0625 206.875 C-110.6317918 215.0414132 -113.20348657 223.61474758 -112.80078125 234.0390625 C-112.17184903 238.96665987 -110.69332704 243.00678379 -108.375 247.375 C-107.6015625 248.8909375 -107.6015625 248.8909375 -106.8125 250.4375 C-102.92089871 255.12737847 -98.17877046 258.65654867 -93.375 262.375 C-92.44300781 263.12136719 -91.51101562 263.86773437 -90.55078125 264.63671875 C-63.4327492 285.83539865 -28.88687482 297.52694448 5.5234375 293.90625 C18.30343629 292.30218925 29.97840989 288.83244511 40.625 281.375 C39.820625 280.75625 39.01625 280.1375 38.1875 279.5 C35.625 277.375 35.625 277.375 34.625 275.375 C34.33990126 269.86465485 34.31122762 264.35320519 34.27490234 258.83618164 C34.25834785 256.9923032 34.23106431 255.14848881 34.19287109 253.30493164 C34.13804335 250.64435595 34.11622021 247.98528363 34.1015625 245.32421875 C34.07889313 244.50322189 34.05622375 243.68222504 34.03286743 242.83634949 C34.04866276 238.54685668 34.24676803 236.86848635 36.94287109 233.35083008 C39.625 231.375 39.625 231.375 43.0625 230.8125 C47.15396245 231.45852039 49.38697367 232.84775994 52.625 235.375 C52.955 234.385 53.285 233.395 53.625 232.375 C56.84981079 230.7625946 60.13915624 230.76820498 63.625 231.375 C66.01946415 232.81369064 67.62702012 234.37702012 69.625 236.375 C70.24375 235.715 70.8625 235.055 71.5 234.375 C73.625 232.375 73.625 232.375 75.625 232.375 C75.625 231.715 75.625 231.055 75.625 230.375 C74.84125 230.2925 74.0575 230.21 73.25 230.125 C70.625 229.375 70.625 229.375 69.3125 227.6875 C68.40698599 224.64168015 68.1725934 222.54184618 68.625 219.375 C71.68637321 215.43894873 73.78884748 214.13090283 78.625 213.375 C79.42825279 192.84742864 76.46899625 173.12313449 62.33227539 157.18847656 C60.15636158 154.85398971 57.90960589 152.60284549 55.625 150.375 C54.29166667 149.04166667 52.95833333 147.70833333 51.625 146.375 C52.99928843 143.19683693 54.48498867 141.39861957 57.15429688 139.21459961 C62.08192491 135.03988065 66.60576327 130.52006554 71.15625 125.94140625 C72.03277222 125.06346909 72.90929443 124.18553192 73.81237793 123.2809906 C76.58562796 120.50218504 79.35536282 117.71990603 82.125 114.9375 C84.01510805 113.04180135 85.90601518 111.14690217 87.796875 109.25195312 C92.40891004 104.62894811 97.01807141 100.00309343 101.625 95.375 C105.08301157 98.67298466 107.16370935 101.92483214 109.125 106.25 C109.57891113 107.23867065 109.57891113 107.23867065 110.04199219 108.24731445 C112.9474204 114.77051461 114.89066228 121.45378251 116.625 128.375 C117.05619141 129.97214844 117.05619141 129.97214844 117.49609375 131.6015625 C126.27368896 164.78003245 117.9965812 198.56735787 101.54541016 227.85058594 C100.625 229.375 100.625 229.375 99.625 230.375 C100.6975 230.66375 101.77 230.9525 102.875 231.25 C106.625 232.375 106.625 232.375 108.75 233.6875 C109.36875 233.914375 109.9875 234.14125 110.625 234.375 C111.35589844 233.90191406 112.08679688 233.42882812 112.83984375 232.94140625 C117.76889738 230.16924565 123.12383836 230.88184031 128.625 231.375 C133.95417417 233.02219929 137.72262211 236.65426487 140.625 241.375 C143.76422731 250.27840579 144.57590118 261.33404281 140.5 270.0625 C137.11506319 275.75187119 132.99039961 279.30783875 126.625 281.375 C123.36328125 281.60546875 123.36328125 281.60546875 119.9375 281.5625 C118.79925781 281.55605469 117.66101563 281.54960937 116.48828125 281.54296875 C113.625 281.375 113.625 281.375 111.625 280.375 C111.65980469 281.18324219 111.69460938 281.99148438 111.73046875 282.82421875 C111.75753906 283.89285156 111.78460938 284.96148437 111.8125 286.0625 C111.86470703 287.64611328 111.86470703 287.64611328 111.91796875 289.26171875 C111.58563055 292.79336599 110.74178496 294.55755429 108.625 297.375 C104.95591443 299.82105705 101.88881231 300.21446402 97.625 299.375 C94.93394802 297.19925584 93.16967072 295.46434144 91.625 292.375 C91.50643364 290.7722902 91.44793876 289.16494647 91.41967773 287.55810547 C91.39973251 286.55721893 91.37978729 285.5563324 91.35923767 284.52511597 C91.33416893 282.90006638 91.33416893 282.90006638 91.30859375 281.2421875 C91.28781265 280.13521515 91.26703156 279.0282428 91.24562073 277.88772583 C91.18009009 274.34188201 91.12122386 270.79596246 91.0625 267.25 C91.01931813 264.8502525 90.97570395 262.45051273 90.93164062 260.05078125 C90.82440512 254.15893487 90.72264528 248.26701269 90.625 242.375 C88.73604606 244.26395394 89.44907275 247.56316821 89.4140625 250.078125 C89.38597855 251.46485524 89.357314 252.85157383 89.328125 254.23828125 C89.28696263 256.42821742 89.25008528 258.61793953 89.22363281 260.80810547 C89.19590914 262.91940636 89.15002335 265.02971155 89.1015625 267.140625 C89.08174316 268.40680664 89.06192383 269.67298828 89.04150391 270.97753906 C88.59959755 274.58221016 87.7742014 276.48421477 85.625 279.375 C82.40946554 281.70349047 79.51478623 281.91957007 75.625 281.375 C72.70016133 279.54952064 70.19070795 277.50641589 68.625 274.375 C68.39877919 272.67136178 68.21611527 270.96171299 68.0625 269.25 C67.93681641 267.88488281 67.93681641 267.88488281 67.80859375 266.4921875 C67.74800781 265.79351562 67.68742187 265.09484375 67.625 264.375 C66.76519531 265.35339844 65.90539062 266.33179688 65.01953125 267.33984375 C53.35663598 280.37778205 41.17608397 289.43643143 24.625 295.375 C23.9973877 295.6009082 23.36977539 295.82681641 22.72314453 296.05957031 C-6.97833811 306.12760739 -40.87600113 298.22831346 -68.25805664 285.1081543 C-85.58265771 276.43963021 -109.48468757 262.36601135 -116.66015625 243.2890625 C-117.49607315 239.88144498 -117.5622576 236.75619314 -117.625 233.25 C-117.9167479 226.30362137 -119.76856704 221.82087112 -123.07568359 215.78759766 C-130.21302065 202.57160204 -135.6180378 186.49735177 -135.375 171.375 C-136.035 171.705 -136.695 172.035 -137.375 172.375 C-141.05700614 173.60233538 -144.5711775 174.18666556 -148.375 173.375 C-153.751082 170.40745083 -156.1856079 167.16194079 -159.1171875 161.984375 C-159.53042267 161.27976135 -159.94365784 160.57514771 -160.36941528 159.84918213 C-161.67580741 157.61499043 -162.963043 155.37043172 -164.25 153.125 C-165.13677424 151.60083654 -166.02478295 150.07739059 -166.9140625 148.5546875 C-169.08207816 144.83627384 -171.23299132 141.10845072 -173.375 137.375 C-173.38958252 138.22731201 -173.40416504 139.07962402 -173.41918945 139.95776367 C-173.48043285 143.13571175 -173.55462029 146.31302546 -173.63745117 149.49047852 C-173.67059806 150.86275958 -173.69866171 152.23517362 -173.72143555 153.60766602 C-173.75516766 155.58637766 -173.8090149 157.56471376 -173.86328125 159.54296875 C-173.88946533 160.73172607 -173.91564941 161.9204834 -173.94262695 163.14526367 C-174.41015961 166.63763493 -175.30872681 168.55206339 -177.375 171.375 C-180.79594119 173.94070589 -184.22273484 173.81208054 -188.375 173.375 C-192.42562908 170.94462255 -193.9326046 168.79419928 -195.375 164.375 C-195.64242554 161.72608948 -195.64242554 161.72608948 -195.66552734 158.85375977 C-195.67828705 157.77236221 -195.69104675 156.69096466 -195.70419312 155.57679749 C-195.70641876 154.41836838 -195.70864441 153.25993927 -195.7109375 152.06640625 C-195.7175943 150.86692856 -195.7242511 149.66745087 -195.73110962 148.43162537 C-195.74122536 145.89738497 -195.74592697 143.36311799 -195.74560547 140.82885742 C-195.7499801 136.95511994 -195.7863177 133.08252049 -195.82421875 129.20898438 C-195.8300868 126.74479556 -195.83405627 124.28060134 -195.8359375 121.81640625 C-195.85030853 120.66000137 -195.86467957 119.5035965 -195.87948608 118.31214905 C-195.84370971 112.00634349 -195.6082823 108.17171739 -191.375 103.375 C-190.89675781 102.77429688 -190.41851562 102.17359375 -189.92578125 101.5546875 C-186.65257112 99.06473924 -182.34503986 99.28801947 -178.375 99.375 C-168.59776219 102.38338087 -163.77764395 113.40253098 -159.0625 121.6875 C-158.11407227 123.33202148 -158.11407227 123.33202148 -157.14648438 125.00976562 C-152.66147959 132.80204082 -152.66147959 132.80204082 -151.375 135.375 C-151.37089111 134.49239502 -151.36678223 133.60979004 -151.36254883 132.70043945 C-151.33550016 129.4102396 -151.28635049 126.12188602 -151.22241211 122.83227539 C-151.19928497 121.41149298 -151.18484874 119.99054042 -151.17944336 118.56958008 C-151.17011339 116.52057534 -151.12904834 114.4742265 -151.08203125 112.42578125 C-151.05846558 110.57980347 -151.05846558 110.57980347 -151.03442383 108.6965332 C-150.20505155 104.51896571 -148.61898327 103.04205691 -145.375 100.375 C-142.47204195 98.92352097 -140.60238221 99.00260975 -137.375 99.375 C-134.44562346 101.18810142 -131.93852051 103.24795899 -130.375 106.375 C-130.1474985 108.24556791 -129.96537189 110.12185958 -129.8125 112 C-129.68681641 113.50433594 -129.68681641 113.50433594 -129.55859375 115.0390625 C-129.49800781 115.80992187 -129.43742187 116.58078125 -129.375 117.375 C-128.9625 116.38242188 -128.55 115.38984375 -128.125 114.3671875 C-122.19950838 100.32937427 -115.52455838 87.90461881 -105.375 76.375 C-104.67761719 75.54484375 -103.98023437 74.7146875 -103.26171875 73.859375 C-99.64805817 69.65775136 -96.04963574 66.07171739 -91.61914062 62.7265625 C-84.46011114 57.23880471 -80.83667485 51.43645177 -76.90258789 43.36791992 C-67.43351589 23.9961221 -50.75483663 12.07155305 -30.99609375 4.48046875 C-20.55702983 1.29357005 -10.92155284 -0.12595945 0 0 Z " fill="#0C0B0B" transform="translate(195.375,27.625)"/>
<path d="M0 0 C3.15090242 2.7251048 5.00735 6.18500199 7.0546875 9.75 C7.84201802 11.09400193 8.6297922 12.43774404 9.41796875 13.78125 C10.64951403 15.89162835 11.87727844 18.00395428 13.09716797 20.12109375 C14.28071414 22.17047479 15.47902928 24.21061001 16.6796875 26.25 C17.03819794 26.88131836 17.39670837 27.51263672 17.76608276 28.16308594 C20.00911374 31.94538362 21.99842348 34.13629742 26 36 C28.03387496 36.3929251 28.03387496 36.3929251 30 36.25 C30.639375 36.23453125 31.27875 36.2190625 31.9375 36.203125 C34.3349248 35.96701498 36.64622993 35.50671439 39 35 C39.20753906 36.20011719 39.41507813 37.40023437 39.62890625 38.63671875 C42.39682277 53.89661847 45.86396449 69.43554208 53.875 82.875 C57.33147077 88.78395557 57.60577748 93.73943575 57.79296875 100.4921875 C58.42909937 111.27040057 64.70517873 118.38263905 72.49267578 125.33203125 C86.01950138 136.98281247 101.59003776 146.07050318 118 153 C118.90492188 153.38671875 119.80984375 153.7734375 120.7421875 154.171875 C147.24046866 164.64232044 180.04651911 166.52664939 206.390625 155.16796875 C220.15622362 148.83255666 231.24403701 139.95444695 240.8359375 128.28515625 C241.22007812 127.86105469 241.60421875 127.43695313 242 127 C242.33 127 242.66 127 243 127 C243.02578125 127.73605469 243.0515625 128.47210938 243.078125 129.23046875 C243.4692495 136.94418163 243.4692495 136.94418163 248 143 C250.42152738 144.21076369 251.75423087 144.07767714 254.4375 143.875 C255.21996094 143.83117187 256.00242187 143.78734375 256.80859375 143.7421875 C259.18240834 143.1643484 259.18240834 143.1643484 260.61157227 140.90356445 C262.31666632 137.33776815 262.38404737 134.74603731 262.40625 130.80078125 C262.42250427 129.78639229 262.42250427 129.78639229 262.43908691 128.75151062 C262.48479458 125.87469103 262.49648752 122.99796768 262.51123047 120.12084961 C262.52687841 118.01383006 262.55984749 115.90757309 262.59375 113.80078125 C262.60438477 111.91613159 262.60438477 111.91613159 262.61523438 109.9934082 C262.74220703 109.0055835 262.86917969 108.01775879 263 107 C264.485 106.01 264.485 106.01 266 105 C266.00808685 105.62782883 266.01617371 106.25565765 266.02450562 106.9025116 C266.110599 113.44017711 266.210105 119.97754108 266.31738281 126.51489258 C266.35565302 128.95429417 266.3905093 131.39375182 266.421875 133.83325195 C266.46756745 137.34086127 266.52555605 140.84808534 266.5859375 144.35546875 C266.60326431 145.99010323 266.60326431 145.99010323 266.62094116 147.65776062 C266.6507457 149.18878166 266.6507457 149.18878166 266.68115234 150.75073242 C266.70113785 152.09309212 266.70113785 152.09309212 266.7215271 153.46257019 C267.03533001 156.32192513 267.6676312 158.45020224 269 161 C272.70160822 162.23386941 276.14793766 162.44267652 280 162 C283.23613354 160.25746655 283.82395315 159.52814056 285 156 C285.22325814 153.94106379 285.40705759 151.87766347 285.5625 149.8125 C285.64628906 148.72582031 285.73007812 147.63914062 285.81640625 146.51953125 C285.87699219 145.68808594 285.93757813 144.85664063 286 144 C286.99 144.04640625 287.98 144.0928125 289 144.140625 C299.69391346 144.65229239 299.69391346 144.65229239 309 140 C313.53111018 135.07183378 316.27851557 129.69901878 316.1953125 122.91796875 C316.18886719 121.98662109 316.18242187 121.05527344 316.17578125 120.09570312 C316.15902344 119.13599609 316.14226562 118.17628906 316.125 117.1875 C316.11146484 115.71893555 316.11146484 115.71893555 316.09765625 114.22070312 C316.07417182 111.81354939 316.0413284 109.40690257 316 107 C318.31 107.99 320.62 108.98 323 110 C324.0892492 128.69877796 324.0892492 128.69877796 318.8984375 134.9375 C318.27195312 135.618125 317.64546875 136.29875 317 137 C315.56078912 138.81114178 314.12339971 140.62373195 312.6875 142.4375 C305.92297195 150.55266368 299.13162233 158.23806583 291 165 C290.12859375 165.75925781 289.2571875 166.51851562 288.359375 167.30078125 C258.12120387 193.29428932 217.7313008 210.82386476 177.53125 211.23828125 C176.74182007 211.24812042 175.95239014 211.25795959 175.13903809 211.26809692 C124.68203543 211.76702847 77.64378516 197.91747631 40.1015625 162.94921875 C38.22072333 161.20472294 36.29381969 159.56532432 34.3125 157.9375 C30.44870684 154.62823271 27.24180611 150.91104259 24 147 C23.57589844 146.50419434 23.15179688 146.00838867 22.71484375 145.49755859 C-2.67726511 115.76438934 -21.41653813 74.65227041 -21.0625 35 C-21.05798828 34.32066406 -21.05347656 33.64132813 -21.04882812 32.94140625 C-21.0372283 31.29423126 -21.01930199 29.64710274 -21 28 C-20.34 28.99 -19.68 29.98 -19 31 C-16.17363299 34.47239375 -14.97103792 35.89778548 -10.4375 36.375 C-9.303125 36.25125 -8.16875 36.1275 -7 36 C-6.236875 35.938125 -5.47375 35.87625 -4.6875 35.8125 C-2.7862453 35.10651829 -2.7862453 35.10651829 -1.92041016 32.88989258 C-0.8337348 29.47796256 -0.67732698 26.52863986 -0.5859375 22.94921875 C-0.56657135 22.29041214 -0.5472052 21.63160553 -0.5272522 20.95283508 C-0.46784059 18.86451857 -0.42122709 16.77614576 -0.375 14.6875 C-0.33678468 13.26495095 -0.29773091 11.84242416 -0.2578125 10.41992188 C-0.16217204 6.94681926 -0.07800027 3.47354868 0 0 Z " fill="#D01F26" transform="translate(21,164)"/>
<path d="M0 0 C30.03921736 -0.71521946 65.89374134 9.77191114 88.2578125 30.7421875 C95.13035001 38.14153973 96.93681208 44.96395925 96.74609375 54.84765625 C95.99067586 65.00383007 91.57825514 74.79788155 83.9375 81.65625 C78.85196239 85.85151364 73.43936898 86.91873242 66.96875 86.76953125 C59.68878858 85.48242095 53.6556232 81.04826459 47.5 77.15625 C44.57543481 75.33352398 41.64653387 73.51832013 38.7121582 71.71142578 C36.74483686 70.4966378 34.7845735 69.2703187 32.83276367 68.03076172 C20.72526727 60.48887327 8.8368973 56.91184938 -5.5 58.15625 C-11.46996233 59.82516918 -15.02453245 63.14748794 -18.5 68.15625 C-21.47848443 74.45000862 -21.76511816 81.37135105 -19.5546875 87.984375 C-17.23201524 92.86344754 -14.63299013 96.61368703 -10.5 100.15625 C-9.94054687 100.65898437 -9.38109375 101.16171875 -8.8046875 101.6796875 C-5.54818571 104.56965662 -2.34135175 107.06096723 1.5 109.15625 C0.03306647 112.52564951 -1.84525722 114.7743357 -4.41137695 117.38989258 C-5.21593826 118.21366898 -6.02049957 119.03744537 -6.84944153 119.88618469 C-7.72025864 120.76550156 -8.59107574 121.64481842 -9.48828125 122.55078125 C-10.38363083 123.45753098 -11.27898041 124.3642807 -12.20146179 125.29850769 C-14.09596608 127.21189631 -15.99285357 129.12258698 -17.89331055 131.0300293 C-20.32819119 133.47591367 -22.74394649 135.93981706 -25.15575886 138.40842152 C-27.46178541 140.76060546 -29.78892489 143.09173035 -32.11328125 145.42578125 C-32.97802567 146.31521927 -33.84277008 147.20465729 -34.73371887 148.12104797 C-35.54773666 148.92906357 -36.36175446 149.73707916 -37.20043945 150.56958008 C-37.91166458 151.28809647 -38.62288971 152.00661285 -39.35566711 152.74690247 C-41.5 154.15625 -41.5 154.15625 -44.11686707 153.98271179 C-47.08227135 152.95432042 -48.97224639 151.48383889 -51.375 149.46875 C-52.68404297 148.37240234 -52.68404297 148.37240234 -54.01953125 147.25390625 C-54.83808594 146.56167969 -55.65664062 145.86945313 -56.5 145.15625 C-57.12261719 144.68058594 -57.74523437 144.20492187 -58.38671875 143.71484375 C-71.36619562 133.57935482 -79.49216777 117.26116365 -81.5 101.15625 C-81.7709069 97.42101845 -81.83427232 93.71294933 -81.8125 89.96875 C-81.80831055 88.9698877 -81.80412109 87.97102539 -81.79980469 86.94189453 C-81.67028762 78.36483312 -80.60900769 70.473592 -78.5 62.15625 C-78.09974609 60.50302734 -78.09974609 60.50302734 -77.69140625 58.81640625 C-72.2515495 38.87026482 -59.67351745 21.52032662 -41.69775391 11.11279297 C-28.62427208 4.0453877 -14.80034029 0.66072948 0 0 Z " fill="#FDFCFC" transform="translate(192.5,31.84375)"/>
<path d="M0 0 C11.54764865 5.16103528 19.55201629 20.73141292 23.83712769 31.77653503 C27.93283455 43.58357277 28.25569784 54.49893083 27.90353394 66.85075378 C27.265448 67.11630066 26.62736206 67.38184753 25.96994019 67.65544128 C25.14365112 68.00864441 24.31736206 68.36184753 23.46603394 68.72575378 C22.642323 69.07380066 21.81861206 69.42184753 20.96994019 69.78044128 C18.74606679 70.67524748 18.74606679 70.67524748 17.90353394 72.85075378 C17.7500475 76.38094175 17.86208148 79.4660333 18.90353394 82.85075378 C20.55353394 83.18075378 22.20353394 83.51075378 23.90353394 83.85075378 C23.90353394 84.51075378 23.90353394 85.17075378 23.90353394 85.85075378 C22.27092679 87.22558085 20.60128331 88.55723045 18.90353394 89.85075378 C18.24353394 90.51075378 17.58353394 91.17075378 16.90353394 91.85075378 C16.44978394 91.04637878 15.99603394 90.24200378 15.52853394 89.41325378 C14.15627729 86.76218806 14.15627729 86.76218806 11.90353394 85.85075378 C6.53390106 85.26891193 6.53390106 85.26891193 1.90353394 87.35075378 C1.57353394 87.84575378 1.24353394 88.34075378 0.90353394 88.85075378 C-1.09646606 87.85075378 -3.09646606 86.85075378 -5.09646606 85.85075378 C-9.96830492 85.36608134 -9.96830492 85.36608134 -14.28762817 87.32365417 C-16.86479289 90.92417138 -16.68879412 94.32827573 -16.66287231 98.59684753 C-16.67217018 99.86903893 -16.67217018 99.86903893 -16.68165588 101.16693115 C-16.68874982 102.95809279 -16.68558742 104.74932042 -16.67288208 106.54045105 C-16.6590282 109.27598451 -16.69307466 112.008088 -16.73123169 114.74333191 C-16.73218306 116.48617129 -16.7303231 118.22901493 -16.72537231 119.97184753 C-16.73863052 120.78657028 -16.75188873 121.60129303 -16.76554871 122.44070435 C-16.69464483 126.7828192 -16.52871404 128.33942722 -13.61965942 131.78068542 C-12.78700562 132.46380798 -11.95435181 133.14693054 -11.09646606 133.85075378 C-10.76646606 134.51075378 -10.43646606 135.17075378 -10.09646606 135.85075378 C-12.26058007 136.96016616 -14.42754799 138.06330248 -16.59646606 139.16325378 C-17.19716919 139.47198425 -17.79787231 139.78071472 -18.41677856 140.09880066 C-42.81397804 152.42717273 -71.63241734 151.16606297 -97.14358521 142.96257019 C-114.73362793 137.00741579 -130.58258253 128.45811025 -145.09646606 116.85075378 C-145.65817505 116.4132782 -146.21988403 115.97580261 -146.7986145 115.52507019 C-155.84347954 108.46143739 -161.83492012 102.09890581 -165.09646606 90.85075378 C-166.31743046 80.23478965 -164.61292024 71.25781668 -158.41677856 62.46794128 C-154.38388842 57.61054915 -150.16005395 53.87194975 -144.09646606 51.85075378 C-136.70512008 51.34964558 -131.15667619 52.22771653 -125.41677856 57.14762878 C-123.90926933 58.54640382 -122.41978815 59.96259538 -120.93240356 61.38273621 C-103.42181811 77.97499114 -82.72810447 87.93685633 -59.09646606 91.85075378 C-59.73584106 92.92325378 -60.37521606 93.99575378 -61.03396606 95.10075378 C-65.33018254 102.68833469 -65.08662714 111.91887138 -63.67068481 120.40153503 C-61.75621271 126.45032726 -57.37042577 130.14030087 -51.92068481 132.98747253 C-44.83476558 135.15343125 -35.2605922 135.28252866 -28.24490356 132.87028503 C-26.27962724 131.67418989 -24.71934492 130.47363264 -23.09646606 128.85075378 C-22.41584106 128.23200378 -21.73521606 127.61325378 -21.03396606 126.97575378 C-19.24235463 122.91476786 -20.75073118 118.88795843 -22.09646606 114.85075378 C-25.47168403 114.11701075 -28.63941294 113.61751932 -32.09646606 113.85075378 C-34.03417761 115.19926825 -35.29267385 116.6476519 -36.79177856 118.46012878 C-38.09646606 119.85075378 -38.09646606 119.85075378 -40.78396606 120.53825378 C-43.09646606 119.85075378 -43.09646606 119.85075378 -44.90896606 117.97575378 C-46.97984777 112.52606509 -46.97984777 107.17544248 -44.90896606 101.72575378 C-43.09646606 99.85075378 -43.09646606 99.85075378 -40.78396606 99.22575378 C-38.09646606 99.85075378 -38.09646606 99.85075378 -35.15896606 102.35075378 C-32.33849929 105.04843071 -32.33849929 105.04843071 -29.03396606 105.47575378 C-24.97077453 104.61124495 -23.51791115 103.19804551 -21.09646606 99.85075378 C-20.1797994 96.35075378 -20.1797994 96.35075378 -21.09646606 92.85075378 C-26.7719784 87.04625253 -31.31190972 85.62920942 -39.09646606 84.85075378 C-38.81029419 84.28485535 -38.52412231 83.71895691 -38.22927856 83.13591003 C-34.3993145 75.40994804 -31.65907196 68.61260826 -33.09646606 59.85075378 C-35.35419721 53.19284874 -38.87313722 48.46671881 -44.09646606 43.85075378 C-42.64130072 40.51826568 -40.80552041 38.29241671 -38.26101685 35.70890808 C-37.4732486 34.90515244 -36.68548035 34.10139679 -35.87384033 33.27328491 C-35.02175995 32.41584183 -34.16967957 31.55839874 -33.29177856 30.67497253 C-32.41625336 29.79041885 -31.54072815 28.90586517 -30.63867188 27.99450684 C-28.78701634 26.1283503 -26.93254147 24.26498759 -25.07546997 22.40422058 C-22.69385326 20.01719991 -20.32884261 17.61441217 -17.96742439 15.20743084 C-15.71159552 12.91477424 -13.43806843 10.63979731 -11.16677856 8.36247253 C-10.31874664 7.49490829 -9.47071472 6.62734406 -8.59698486 5.73348999 C-7.80291229 4.94549515 -7.00883972 4.15750031 -6.19070435 3.34562683 C-5.4950235 2.64487534 -4.79934265 1.94412384 -4.08258057 1.22213745 C-2.09646606 -0.14924622 -2.09646606 -0.14924622 0 0 Z " fill="#FCFCFC" transform="translate(247.09646606445313,174.1492462158203)"/>
<path d="M0 0 C4.49301925 2.88446277 6.92669586 6.6436131 9.5390625 11.1796875 C10.15036514 12.21526291 10.15036514 12.21526291 10.77401733 13.27175903 C12.06688711 15.46758253 13.34582688 17.67117572 14.625 19.875 C15.49133484 21.34815801 16.35851451 22.82081954 17.2265625 24.29296875 C18.8207842 27.00742952 20.41458999 29.72207976 21.99462891 32.44482422 C22.34100403 33.04147888 22.68737915 33.63813354 23.04425049 34.25286865 C23.95816605 35.92352662 24.7416683 37.66356175 25.51708984 39.40283203 C26.70617674 42.16728972 26.70617674 42.16728972 29.09268188 42.662323 C30.03680435 42.82947311 30.03680435 42.82947311 31 43 C30.98428955 41.8039917 30.9685791 40.6079834 30.95239258 39.37573242 C30.89812939 34.94220707 30.8636631 30.50871112 30.83520508 26.07495117 C30.8201102 24.15530462 30.79963227 22.2356926 30.77368164 20.31616211 C30.73732891 17.55834436 30.72028088 14.8009822 30.70703125 12.04296875 C30.69154739 11.18350143 30.67606354 10.32403412 30.66011047 9.43852234 C30.65988388 8.63791885 30.65965729 7.83731537 30.65942383 7.01245117 C30.65276199 6.3085173 30.64610016 5.60458344 30.63923645 4.87931824 C31.11917878 2.3791644 31.95240329 1.4812312 34 0 C40.44444444 0.44444444 40.44444444 0.44444444 42 2 C42.12515469 3.7831007 42.18073033 5.57113034 42.20874023 7.35839844 C42.22803085 8.50338806 42.24732147 9.64837769 42.26719666 10.82806396 C42.32468309 16.0790143 42.37454228 21.32987915 42.4050293 26.58105469 C42.42282326 29.35366252 42.45760313 32.12524944 42.50756836 34.89746094 C42.57935404 38.88472299 42.60200194 42.87149557 42.62109375 46.859375 C42.64892441 48.09911072 42.67675507 49.33884644 42.70542908 50.6161499 C42.68545144 58.95135799 42.68545144 58.95135799 40.74734497 61.91638184 C37.98713434 64.37591253 36.12202891 64.99357743 32.4375 65.1875 C25.92979184 62.93938264 22.76226556 56.26550104 19.42578125 50.5546875 C18.8109211 49.51624191 18.8109211 49.51624191 18.18363953 48.45681763 C17.32493168 47.00442017 16.46874629 45.55052861 15.61499023 44.09521484 C14.3104562 41.87151615 12.99872325 39.65219776 11.68554688 37.43359375 C10.8485406 36.01587154 10.0119379 34.59791097 9.17578125 33.1796875 C8.78618729 32.51919403 8.39659332 31.85870056 7.99519348 31.17819214 C5.10655139 26.25149318 5.10655139 26.25149318 3.98901367 23.61376953 C3.11582442 21.78308136 3.11582442 21.78308136 0.93818665 21.3991394 C0.29858505 21.2674234 -0.34101654 21.1357074 -1 21 C-0.97905273 22.19077148 -0.95810547 23.38154297 -0.93652344 24.60839844 C-0.86409038 29.02884889 -0.81818828 33.44924696 -0.78027344 37.87011719 C-0.76016548 39.78296735 -0.73287493 41.69575611 -0.69824219 43.60839844 C-0.64968751 46.35887811 -0.62702342 49.10854477 -0.609375 51.859375 C-0.58872986 52.71368103 -0.56808472 53.56798706 -0.54681396 54.44818115 C-0.54458326 60.35881796 -0.54458326 60.35881796 -2.82910156 63.57519531 C-5 65 -5 65 -8.125 64.9375 C-11 64 -11 64 -13 61 C-13.26742554 58.58486938 -13.26742554 58.58486938 -13.29052734 55.68994141 C-13.30328705 54.6051651 -13.31604675 53.52038879 -13.32919312 52.40274048 C-13.33141876 51.23085175 -13.33364441 50.05896301 -13.3359375 48.8515625 C-13.3425943 47.64688324 -13.3492511 46.44220398 -13.35610962 45.20101929 C-13.36624274 42.65062997 -13.37092644 40.10021411 -13.37060547 37.54980469 C-13.37497498 33.64734168 -13.41128009 29.74601255 -13.44921875 25.84375 C-13.45508742 23.36719137 -13.45905648 20.89062737 -13.4609375 18.4140625 C-13.47530853 17.24622223 -13.48967957 16.07838196 -13.50448608 14.87515259 C-13.45880105 6.77439592 -13.45880105 6.77439592 -11.09619141 2.78662109 C-7.40120863 -0.36267823 -4.82768376 -0.40912574 0 0 Z " fill="#F8F8F8" transform="translate(18,132)"/>
<path d="M0 0 C5.12903302 3.38709728 8.34560351 7.09408181 10 13 C11.15037683 22.02024446 10.34798269 29.50103804 5 37 C2.625 39.4375 2.625 39.4375 0 41 C-0.969375 41.5775 -1.93875 42.155 -2.9375 42.75 C-9.19400138 45.233392 -17.09097505 45.07772183 -23.5078125 43.30859375 C-29.63962069 40.52246797 -34.05645303 35.47900077 -36.4921875 29.1796875 C-38.15748114 22.03173481 -38.16791044 14.11959348 -34.328125 7.7109375 C-25.62735591 -3.49770033 -12.66089335 -6.02668244 0 0 Z " fill="#F7F7F7" transform="translate(109,153)"/>
<path d="M0 0 C2.375 0.75 2.375 0.75 3.375 1.75 C3.60692865 3.26469448 3.78715238 4.78754562 3.9375 6.3125 C4.02128906 7.13878906 4.10507812 7.96507812 4.19140625 8.81640625 C4.25199219 9.45449219 4.31257813 10.09257812 4.375 10.75 C4.75011719 10.20730469 5.12523437 9.66460937 5.51171875 9.10546875 C11.08896945 1.30855656 11.08896945 1.30855656 15.375 -0.25 C20.37068723 -0.91329293 24.17040143 -0.8299919 28.75 1.375 C33.25656997 5.45237283 36.09138964 9.63433765 36.6484375 15.75390625 C36.87886586 23.82776165 36.45226685 30.21502636 31.375 36.75 C26.81136182 41.21244886 22.2218876 42.30995195 15.96484375 42.4140625 C12.14947034 41.43576162 9.43402158 39.16487228 6.375 36.75 C6.3656543 37.30461914 6.35630859 37.85923828 6.34667969 38.43066406 C6.29284278 40.95466481 6.20922746 43.47683814 6.125 46 C6.10373047 47.30904297 6.10373047 47.30904297 6.08203125 48.64453125 C5.83524865 55.11023527 5.83524865 55.11023527 3.4921875 58.3671875 C1.375 59.75 1.375 59.75 -1.25 59.625 C-3.625 58.75 -3.625 58.75 -5.625 56.75 C-5.88569641 54.47962952 -5.88569641 54.47962952 -5.8996582 51.61352539 C-5.90919022 50.54223892 -5.91872223 49.47095245 -5.92854309 48.36720276 C-5.92763168 47.20575241 -5.92672028 46.04430206 -5.92578125 44.84765625 C-5.93006638 43.65901474 -5.9343515 42.47037323 -5.93876648 41.24571228 C-5.94451819 38.72802366 -5.94500389 36.21031842 -5.94067383 33.69262695 C-5.93751587 29.8319066 -5.96095682 25.97195352 -5.98632812 22.11132812 C-5.98860115 19.6692718 -5.9893046 17.22721341 -5.98828125 14.78515625 C-5.997491 13.62573013 -6.00670074 12.46630402 -6.01618958 11.27174377 C-6.00996078 10.19730515 -6.00373199 9.12286652 -5.99731445 8.01586914 C-5.99794388 7.06925919 -5.9985733 6.12264923 -5.9992218 5.14735413 C-5.625 2.75 -5.625 2.75 -4.26579285 0.90525818 C-2.625 -0.25 -2.625 -0.25 0 0 Z " fill="#F7F7F7" transform="translate(297.625,263.25)"/>
<path d="M0 0 C3.37524252 0.91222771 3.89655075 1.83004766 5.75 4.875 C7 8 7 8 7 12 C8.11375 11.87625 8.11375 11.87625 9.25 11.75 C12 12 12 12 14.3125 13.5 C16.83210805 17.23275267 16.49582992 19.5375307 16 24 C14.875 25.9375 14.875 25.9375 13 27 C11.02 27.33 9.04 27.66 7 28 C7.495 36.415 7.495 36.415 8 45 C9.299375 45.61875 10.59875 46.2375 11.9375 46.875 C15.875 48.75 15.875 48.75 17 51 C17.57801822 57.24259681 17.57801822 57.24259681 15.1875 60.375 C10.14635317 64.11985193 4.00333355 63.5395401 -2 63 C-6.5261082 61.74274772 -9.22452234 60.10067797 -11.9375 56.25 C-14.20648513 49.30957489 -14.07160424 42.68597702 -13.5625 35.5 C-13.51029297 34.67757812 -13.45808594 33.85515625 -13.40429688 33.0078125 C-13.27619538 31.00477101 -13.13904939 29.00231129 -13 27 C-13.93585938 26.78730469 -13.93585938 26.78730469 -14.890625 26.5703125 C-17.54306174 25.8531722 -18.46875135 25.29687297 -20 23 C-20.6431853 16.99693721 -20.6431853 16.99693721 -18.75 14.0625 C-17 13 -17 13 -13 13 C-13.103125 11.783125 -13.20625 10.56625 -13.3125 9.3125 C-13.29408036 5.85574718 -13.02409685 5.03614527 -11 2 C-6.88157597 -0.74561602 -4.89307732 -0.54367526 0 0 Z " fill="#0E0C0C" transform="translate(357,247)"/>
<path d="M0 0 C2 2 2 2 2.1875 5.0625 C2 8 2 8 1 9 C-1.8125 9.3125 -1.8125 9.3125 -5 9 C-5.598125 8.34 -6.19625 7.68 -6.8125 7 C-9.31799448 4.70926219 -10.19984987 4.57957701 -13.5 4.375 C-16.99268868 4.57639062 -17.79660144 4.82636708 -20.5625 7.1875 C-23.38405024 12.61057132 -23.08623136 20.41412779 -21.3515625 26.140625 C-20.45412099 27.97105026 -19.44748173 29.55251827 -18 31 C-14.94751145 31.44147562 -12.04678808 31.49040767 -9 31 C-6.24958334 28.58333229 -6.24958334 28.58333229 -4 26 C-1.3125 25.5625 -1.3125 25.5625 1 26 C3 28 3 28 3.4375 30.375 C3 33 3 33 0.875 35.1875 C-5.7619885 39.3716884 -12.29730298 39.81879063 -20 39 C-25.36399352 37.39427378 -28.97392344 34.77188996 -32 30 C-35.01198946 23.67045694 -35.1111217 16.34603297 -33.3828125 9.5859375 C-31.03772639 4.21091713 -26.97259236 0.9508813 -22 -2 C-14.48180242 -4.50606586 -7.02405932 -3.32046441 0 0 Z " fill="#F5F5F5" transform="translate(220,266)"/>
<path d="M0 0 C3.5 0.25 3.5 0.25 5.5 2.25 C5.6953125 4.6328125 5.6953125 4.6328125 5.625 7.375 C5.60695313 8.28507812 5.58890625 9.19515625 5.5703125 10.1328125 C5.54710937 10.83148438 5.52390625 11.53015625 5.5 12.25 C8.14 12.25 10.78 12.25 13.5 12.25 C13.88218767 13.90614657 14.21395102 15.57457024 14.5 17.25 C13.5 18.25 13.5 18.25 11.65234375 18.34765625 C9.6015625 18.31510417 7.55078125 18.28255208 5.5 18.25 C5.63904844 22.00028389 5.78741611 25.75014281 5.9375 29.5 C5.97681641 30.56347656 6.01613281 31.62695312 6.05664062 32.72265625 C6.09853516 33.74746094 6.14042969 34.77226562 6.18359375 35.828125 C6.22025146 36.77075195 6.25690918 37.71337891 6.29467773 38.68457031 C6.45079003 41.51886213 6.45079003 41.51886213 7.5 45.25 C10.14 45.91 12.78 46.57 15.5 47.25 C15.125 49.6875 15.125 49.6875 14.5 52.25 C10.55749412 54.22125294 5.79780285 53.69717024 1.5 53.25 C-2.69220158 50.94001137 -4.05041046 48.70957285 -5.5 44.25 C-5.72705078 41.2956543 -5.72705078 41.2956543 -5.6953125 38.07421875 C-5.68886719 36.91728516 -5.68242187 35.76035156 -5.67578125 34.56835938 C-5.65902344 33.37017578 -5.64226562 32.17199219 -5.625 30.9375 C-5.61597656 29.71998047 -5.60695313 28.50246094 -5.59765625 27.24804688 C-5.57413037 24.24849726 -5.54125653 21.24934956 -5.5 18.25 C-6.28375 18.29125 -7.0675 18.3325 -7.875 18.375 C-10.5 18.25 -10.5 18.25 -12.5 16.25 C-12.125 14.125 -12.125 14.125 -11.5 12.25 C-9.52 12.25 -7.54 12.25 -5.5 12.25 C-5.52320313 11.55132812 -5.54640625 10.85265625 -5.5703125 10.1328125 C-5.59738281 8.76769531 -5.59738281 8.76769531 -5.625 7.375 C-5.64820313 6.47007812 -5.67140625 5.56515625 -5.6953125 4.6328125 C-5.35980991 0.53968096 -3.9253369 0.28038121 0 0 Z " fill="#F3F3F3" transform="translate(353.5,251.75)"/>
<path d="M0 0 C3.02062015 0.92296727 3.84112059 1.77639194 5.6875 4.375 C8.48221704 9.96443409 8.7801307 15.8437512 8 22 C6.43472626 25.6795614 4.66126345 29.16936828 1 31 C-3.75469749 31.65388767 -6.97307179 31.74288423 -10.9375 28.875 C-15.17748608 22.96471637 -15.74025598 17.1018308 -15 10 C-12.32921981 2.40936156 -8.09220984 -0.88278653 0 0 Z " fill="#0F0F0F" transform="translate(99,158)"/>
<path d="M0 0 C2.4375 0.8125 2.4375 0.8125 4.4375 2.8125 C4.5625 5.9375 4.5625 5.9375 4.4375 8.8125 C5.7575 8.8125 7.0775 8.8125 8.4375 8.8125 C8.705625 7.884375 8.97375 6.95625 9.25 6 C10.97829696 1.3608871 10.97829696 1.3608871 13.4375 -0.1875 C16.77942692 0.05703124 18.04293557 0.41793557 20.4375 2.8125 C20.33203125 4.78515625 20.33203125 4.78515625 19.4375 6.8125 C17.51171875 8.12109375 17.51171875 8.12109375 15.125 9.25 C11.10079194 11.15900449 8.69892903 12.90962922 6.4375 16.8125 C5.9170472 20.33272796 5.92290596 23.82135027 5.9375 27.375 C5.97704985 37.04493954 5.97704985 37.04493954 3.5703125 40.46875 C1.4375 41.8125 1.4375 41.8125 -1.1875 41.75 C-3.5625 40.8125 -3.5625 40.8125 -5.5625 37.8125 C-5.77012825 35.16224072 -5.86654306 32.619578 -5.86328125 29.96875 C-5.86756638 29.20324829 -5.8718515 28.43774658 -5.87626648 27.64904785 C-5.88200517 26.03182972 -5.88251342 24.41458577 -5.87817383 22.79736328 C-5.87501149 20.32149347 -5.89848531 17.84681603 -5.92382812 15.37109375 C-5.92610092 13.79948068 -5.92680471 12.22786438 -5.92578125 10.65625 C-5.934991 9.91556274 -5.94420074 9.17487549 -5.95368958 8.41174316 C-5.90777782 3.3198066 -5.90777782 3.3198066 -4.19995117 0.81054688 C-2.5625 -0.1875 -2.5625 -0.1875 0 0 Z " fill="#F5F5F5" transform="translate(239.5625,263.1875)"/>
<path d="M0 0 C3.48715824 2.2191007 5.51913794 4.16024262 7 8 C8.33659266 20.89967337 8.33659266 20.89967337 5.1875 25.75 C2.33589821 28.68307613 0.73826095 29.91797101 -3.375 30.375 C-7.62859573 29.93497286 -9.08805108 29.078346 -12 26 C-14.69747273 20.49147674 -14.66807803 15.01270231 -14 9 C-10.89980498 2.6888887 -7.28315881 -1.04045126 0 0 Z " fill="#1B1616" transform="translate(316,269)"/>
<path d="M0 0 C2.81445471 0.98505915 3.77478427 1.45908348 5.5 3.875 C5.81040379 6.48558028 5.94430614 8.85328034 5.93359375 11.46484375 C5.9388356 12.20577774 5.94407745 12.94671173 5.94947815 13.71009827 C5.95589683 15.2760391 5.95456328 16.84202816 5.94604492 18.40795898 C5.93754142 20.80084392 5.96628278 23.19133577 5.99804688 25.58398438 C5.99965922 27.10677012 5.99908071 28.62956008 5.99609375 30.15234375 C6.01294472 31.22282204 6.01294472 31.22282204 6.03013611 32.31492615 C5.98208491 35.75049632 5.71843062 37.58361636 3.63305664 40.36547852 C1.5 41.875 1.5 41.875 -1.125 41.75 C-3.5 40.875 -3.5 40.875 -5.5 38.875 C-5.71202418 36.1854026 -5.80397614 33.60136277 -5.80078125 30.91015625 C-5.80506638 30.12104355 -5.8093515 29.33193085 -5.81376648 28.51890564 C-5.81951363 26.84863241 -5.82000721 25.17833414 -5.81567383 23.50805664 C-5.81251655 20.95090028 -5.83595751 18.3949036 -5.86132812 15.83789062 C-5.86360134 14.2161473 -5.86430451 12.59440085 -5.86328125 10.97265625 C-5.872491 10.20695816 -5.88170074 9.44126007 -5.89118958 8.65235901 C-5.84523203 3.38381169 -5.84523203 3.38381169 -4.13354492 0.86108398 C-2.5 -0.125 -2.5 -0.125 0 0 Z " fill="#F3F3F3" transform="translate(274.5,263.125)"/>
<path d="M0 0 C3.68067472 1.15873093 5.16802599 1.92180622 7.375 5.0625 C8.29818632 8.22771024 8.67323742 10.16778774 7.625 13.3125 C6.375 15.0625 6.375 15.0625 3.375 17.0625 C-1.52987343 17.61627603 -3.52479388 17.81889171 -7.625 15 C-9.625 12.0625 -9.625 12.0625 -10.3125 8.5625 C-9.625 5.0625 -9.625 5.0625 -7.0625 2.0625 C-3.625 0.0625 -3.625 0.0625 0 0 Z " fill="#151515" transform="translate(265.625,80.9375)"/>
<path d="M0 0 C2.09765625 0.703125 2.09765625 0.703125 4.72265625 2.828125 C6.56312506 6.67637796 6.35036603 8.65024042 5.09765625 12.703125 C2.36454618 15.83816302 0.69338371 16.5967451 -3.40234375 17.328125 C-6.90234375 16.703125 -6.90234375 16.703125 -9.83984375 14.078125 C-12.0905264 10.39518975 -12.79660591 8.90615714 -11.90234375 4.703125 C-8.56490595 -0.35686134 -5.66513219 -1.02142617 0 0 Z " fill="#232323" transform="translate(239.90234375,68.296875)"/>
<path d="M0 0 C0.33 0 0.66 0 1 0 C2.11995315 11.57284918 -4.378011 18.51563267 -11.36328125 27.1640625 C-11.90339844 27.76992188 -12.44351563 28.37578125 -13 29 C-13.33 29 -13.66 29 -14 29 C-14.10829314 26.10315842 -14.18743954 23.21038981 -14.25 20.3125 C-14.28351563 19.49587891 -14.31703125 18.67925781 -14.3515625 17.83789062 C-14.41641227 13.83341707 -14.33714349 11.57643128 -12.27734375 8.0546875 C-9.98358278 5.9851879 -8.18521375 4.89985777 -5.3125 3.8125 C-1.95054326 2.71125512 -1.95054326 2.71125512 0 0 Z " fill="#F3F3F3" transform="translate(263,271)"/>
<path d="M0 0 C6.7875895 0 6.7875895 0 9.984375 2.63671875 C14.30082323 7.47888824 17.69305448 12.03285997 18.375 18.625 C17.98384701 22.14537687 17.58078088 23.61038807 15 26 C14.01 26 13.02 26 12 26 C11.81566406 25.17757812 11.63132812 24.35515625 11.44140625 23.5078125 C9.14113803 14.65433571 5.61854734 9.26499246 -1 3 C-0.67 2.01 -0.34 1.02 0 0 Z " fill="#141414" transform="translate(267,65)"/>
<path d="M0 0 C2.3431213 0.25561323 4.67843403 0.59270772 7 1 C8.46961466 3.93922933 8.20919862 6.60408972 8.25 9.875 C8.28867187 11.72738281 8.28867187 11.72738281 8.328125 13.6171875 C7.98550073 17.14948054 7.40930359 18.4765715 5 21 C2.125 20.75 2.125 20.75 -1 20 C-3.24798508 16.80352952 -3.29813752 13.82999337 -3.3125 10 C-3.32925781 8.96875 -3.34601563 7.9375 -3.36328125 6.875 C-2.96081368 3.68988032 -2.13430263 2.34266462 0 0 Z " fill="#CB1F26" transform="translate(310,274)"/>
<path d="M0 0 C1.12148437 -0.02578125 2.24296875 -0.0515625 3.3984375 -0.078125 C7.01560625 0.28972267 8.83999252 0.92072101 11.625 3.25 C12.4375 5.9375 12.4375 5.9375 12.625 8.25 C11.47902344 8.21519531 10.33304688 8.18039063 9.15234375 8.14453125 C7.62241061 8.11637297 6.09246146 8.08907501 4.5625 8.0625 C3.81033203 8.03736328 3.05816406 8.01222656 2.28320312 7.98632812 C-3.10169037 7.91639444 -6.51396765 8.98310487 -11.375 11.25 C-12.695 11.25 -14.015 11.25 -15.375 11.25 C-15.75 9.0625 -15.75 9.0625 -15.375 6.25 C-10.33962191 1.3265192 -6.90219978 0.09476704 0 0 Z " fill="#0E0E0E" transform="translate(237.375,53.75)"/>
<path d="M0 0 C2 2 2 2 2.1875 4.5625 C2 7 2 7 1 8 C-0.99609375 8.16796875 -0.99609375 8.16796875 -3.4375 8.1875 C-4.64212891 8.20876953 -4.64212891 8.20876953 -5.87109375 8.23046875 C-8 8 -8 8 -10 6 C-9.75 3.4375 -9.75 3.4375 -9 1 C-5.98675805 -0.50662097 -3.31713623 -0.17770373 0 0 Z " fill="#F1F1F1" transform="translate(278,246)"/>
<path d="M0 0 C2.475 0.495 2.475 0.495 5 1 C4.67 1.99 4.34 2.98 4 4 C2.68 3.67 1.36 3.34 0 3 C0 2.01 0 1.02 0 0 Z " fill="#E0E0E0" transform="translate(266,88)"/>
</svg>
