<?xml version="1.0" encoding="UTF-8"?>
<svg version="1.1" xmlns="http://www.w3.org/2000/svg" width="744" height="1052">
<path d="M0 0 C1 2 1 2 0.1105957 4.88452148 C-0.36010183 6.13292755 -0.8390661 7.37823383 -1.32421875 8.62109375 C-1.58141693 9.29920105 -1.83861511 9.97730835 -2.10360718 10.67596436 C-2.66394988 12.15296812 -3.22738294 13.62880223 -3.79348755 15.10360718 C-5.32342699 19.09763957 -6.82151094 23.1035746 -8.3203125 27.109375 C-8.62979324 27.93571945 -8.93927399 28.7620639 -9.25813293 29.6134491 C-38.98197364 109.20957092 -60.17003821 193.4384567 -49.16748047 473.62524414 C-43.11012494 486.75856879 -35.48497654 499.06437999 -26 510 C-24.92105469 511.26070312 -24.92105469 511.26070312 -23.8203125 512.546875 C-10.68745967 527.54286612 4.9563912 537.80789643 23 546 C24.03125 546.47179687 25.0625 546.94359375 26.125 547.4296875 C32.8457711 550.2475108 39.73299163 552.0387725 46.8125 553.6875 C47.67697754 553.89012451 48.54145508 554.09274902 49.43212891 554.30151367 C63.39424429 557.38491063 77.19052273 558.38393065 91.4375 558.3125 C92.21991058 558.31034485 93.00232117 558.3081897 93.80844116 558.30596924 C107.7154696 558.24496499 121.27005573 557.3213471 135 555 C136.18835449 554.80132324 137.37670898 554.60264648 138.60107422 554.39794922 C187.74549376 545.97048614 235.09249565 529.39128307 280.375 508.8125 C309.20069387 495.72130425 337.64379107 486.93370203 368.875 481.5625 C369.63888031 481.43067322 370.40276062 481.29884644 371.18978882 481.1630249 C373.37275848 480.79004455 375.55697922 480.4260176 377.7421875 480.06640625 C378.9988623 479.85959229 380.25553711 479.65277832 381.55029297 479.43969727 C384.74820406 479.03209374 387.78125246 478.9157509 391 479 C388.42256098 481.02040785 385.91925525 482.65435577 382.97045898 484.07446289 C382.18129089 484.45736984 381.3921228 484.84027679 380.57904053 485.23478699 C379.72666809 485.64328384 378.87429565 486.0517807 377.99609375 486.47265625 C376.14214752 487.37088206 374.28822606 488.269159 372.43432617 489.16748047 C371.45837494 489.63845154 370.48242371 490.10942261 369.47689819 490.59466553 C354.79248219 497.68629704 340.15644352 504.85300509 325.6875 512.375 C224.57007307 564.83117377 224.57007307 564.83117377 182 579 C179.91914606 579.71317771 177.8384144 580.42671231 175.7578125 581.140625 C141.85925816 592.57573015 106.8900532 599.22634003 71.125 599.25 C69.75139313 599.25101212 69.75139313 599.25101212 68.35003662 599.25204468 C55.02443059 599.23643751 42.05480807 598.92731958 29 596 C28.22221191 595.83371094 27.44442383 595.66742187 26.64306641 595.49609375 C-3.162871 588.95996941 -28.01329571 574.94409907 -50 554 C-50.76957031 553.29488281 -51.53914063 552.58976563 -52.33203125 551.86328125 C-94.81215585 511.6793796 -110.31201878 441.80158345 -112.10700989 385.65263367 C-112.16323302 382.14966482 -112.19032385 378.64792648 -112.203125 375.14453125 C-112.21013931 373.85626938 -112.21715363 372.56800751 -112.22438049 371.2407074 C-112.24380738 367.09796664 -112.24881563 362.9552817 -112.25 358.8125 C-112.25044186 358.10624985 -112.25088371 357.39999969 -112.25133896 356.67234802 C-112.25846213 334.9638507 -111.82395557 313.56124518 -109 292 C-108.82583405 290.60394396 -108.65251973 289.20778146 -108.47998047 287.81152344 C-99.07739648 212.43550727 -78.26919158 136.70685802 -43.10302734 69.13232422 C-41.81890296 66.64991113 -40.56066261 64.15495782 -39.30078125 61.66015625 C-28.27979086 39.99555646 -15.83062285 18.55509599 0 0 Z " fill="#000000" transform="translate(176,193)"/>
<path d="M0 0 C15.048076 3.06203835 29.96395704 6.57884871 44.8815918 10.21826172 C55.18299133 12.72745622 65.4857322 15.17853843 75.87890625 17.28125 C76.668452 17.44250366 77.45799774 17.60375732 78.27146912 17.76989746 C86.2413481 19.34198199 94.10623217 20.18753051 102.23046875 20.15625 C102.99610641 20.15451782 103.76174408 20.15278564 104.55058289 20.15100098 C115.07320973 20.05522348 125.54931482 19.12283833 136.03295898 18.28173828 C146.13245459 17.4807532 156.22340717 16.82627192 166.35546875 16.65625 C167.20619461 16.62841431 168.05692047 16.60057861 168.9334259 16.57189941 C174.75078979 16.53572785 179.15180189 17.70098954 184 21 C188.32769743 26.13645202 187.81713929 32.46875542 187.28857422 38.83935547 C182.62494325 73.75740459 151.89214168 109.12849059 130.8984375 135.98828125 C123.19112567 145.90110885 116.84835579 156.37014474 110.59375 167.24804688 C108.11402022 171.52983518 105.55712483 175.76414234 103 180 C96.60721179 190.63170344 90.26473123 201.29228557 84 212 C83.57058105 212.73202637 83.14116211 213.46405273 82.69873047 214.21826172 C70.85236632 234.5008917 62.07569961 256.08414042 53.17044067 277.76997375 C51.10520392 282.78959215 51.10520392 282.78959215 50 285 C49.34 285 48.68 285 48 285 C47.516941 283.60550891 47.03874483 282.20933293 46.5625 280.8125 C46.29566406 280.03519531 46.02882813 279.25789063 45.75390625 278.45703125 C37.9018851 252.86676542 47.13440206 222.470278 55 198 C55.27183105 197.14873535 55.54366211 196.2974707 55.82373047 195.42041016 C68.85360736 155.16583028 88.57843927 115.79961462 111 80 C111.8338623 78.66678711 111.8338623 78.66678711 112.68457031 77.30664062 C116.10011365 71.85642861 119.53817598 66.42092701 123 61 C122.36723145 60.91024902 121.73446289 60.82049805 121.08251953 60.72802734 C100.65947524 57.76190245 83.13563038 52.83175376 65 43 C64.35353516 42.65598145 63.70707031 42.31196289 63.04101562 41.95751953 C53.78814015 37.0203509 45.04166657 31.49263369 36.36328125 25.61328125 C30.11534175 21.38467972 23.80488436 17.25197301 17.4937439 13.11859131 C15.51949714 11.82527248 13.54645333 10.53013327 11.57348633 9.23486328 C10.35115149 8.43380135 9.12874274 7.63285219 7.90625 6.83203125 C6.81634766 6.11764893 5.72644531 5.4032666 4.60351562 4.66723633 C2.14702601 3.02945623 2.14702601 3.02945623 0 2 C0 1.34 0 0.68 0 0 Z " fill="#000000" transform="translate(493,574)"/>
</svg>
